<?xml version="1.0" standalone="no"?>
<!DOCTYPE svg PUBLIC "-//W3C//DTD SVG 1.1//EN" "http://www.w3.org/Graphics/SVG/1.1/DTD/svg11.dtd" >
<svg xmlns="http://www.w3.org/2000/svg">
<metadata>
Created by FontForge 20120731 at Fri Apr  7 10:05:27 2017
 By admin
</metadata>
<defs>
<font id="ngv-icon" horiz-adv-x="1024" >
  <font-face 
    font-family="ngv-icon"
    font-weight="500"
    font-stretch="normal"
    units-per-em="1024"
    panose-1="2 0 6 3 0 0 0 0 0 0"
    ascent="896"
    descent="-128"
    x-height="792"
    bbox="-0.190476 -212 1235 943"
    underline-thickness="0"
    underline-position="0"
    unicode-range="U+0078-E836"
  />
<missing-glyph 
 />
    <glyph glyph-name=".notdef" 
 />
    <glyph glyph-name=".notdef" 
 />
    <glyph glyph-name=".null" horiz-adv-x="0" 
 />
    <glyph glyph-name="nonmarkingreturn" horiz-adv-x="341" 
 />
    <glyph glyph-name="x" unicode="x" horiz-adv-x="1001" 
d="M281 543q-27 -1 -53 -1h-83q-18 0 -36.5 -6t-32.5 -18.5t-23 -32t-9 -45.5v-76h912v41q0 16 -0.5 30t-0.5 18q0 13 -5 29t-17 29.5t-31.5 22.5t-49.5 9h-133v-97h-438v97zM955 310v-52q0 -23 0.5 -52t0.5 -58t-10.5 -47.5t-26 -30t-33 -16t-31.5 -4.5q-14 -1 -29.5 -0.5
t-29.5 0.5h-32l-45 128h-439l-44 -128h-29h-34q-20 0 -45 1q-25 0 -41 9.5t-25.5 23t-13.5 29.5t-4 30v167h911zM163 247q-12 0 -21 -8.5t-9 -21.5t9 -21.5t21 -8.5q13 0 22 8.5t9 21.5t-9 21.5t-22 8.5zM316 123q-8 -26 -14 -48q-5 -19 -10.5 -37t-7.5 -25t-3 -15t1 -14.5
t9.5 -10.5t21.5 -4h37h67h81h80h64h36q23 0 34 12t2 38q-5 13 -9.5 30.5t-9.5 34.5q-5 19 -11 39h-368zM336 498v228q0 11 2.5 23t10 21.5t20.5 15.5t34 6h188q31 0 51.5 -14.5t20.5 -52.5v-227h-327z" />
    <glyph glyph-name="zhanghu" unicode="&#xe641;" horiz-adv-x="1154" 
d="M1016 831q62 0 99.5 -31.5t37.5 -96.5v-568q0 -27 -10 -52t-28 -43t-42 -29t-51 -11h-893q-27 0 -50.5 10t-41 27t-27.5 39.5t-10 48.5v581q0 55 34 90t95 35h887zM288 642q-20 0 -37.5 -7t-30.5 -20t-21 -31t-8 -38.5t8 -38t21 -30.5t30.5 -20.5t37.5 -7.5q21 0 39 7.5
t31 20.5t20.5 30.5t7.5 38.5q0 42 -27.5 69t-70.5 27zM449 288q0 19 -8 37t-20.5 31t-30.5 20.5t-38 7.5h-128q-40 0 -67.5 -28t-27.5 -68v-4v-93h320v93v4zM924 186q20 0 30 10.5t10 25t-11.5 25t-31.5 10.5h-306q-20 0 -30.5 -10.5t-10.5 -25t10.5 -25t29.5 -10.5h310z
M925 318q20 0 29.5 10.5t9.5 24.5q0 16 -9 26t-29 10h-314q-20 0 -29.5 -10t-9.5 -26q0 -14 9 -24.5t29 -10.5h314zM926 449q15 0 26.5 10t11.5 24.5t-11.5 23t-26.5 8.5h-208q-16 0 -26.5 -8.5t-10.5 -23t10.5 -24.5t26.5 -10h208z" />
    <glyph glyph-name="shouye" unicode="&#xe638;" horiz-adv-x="1000" 
d="M839 246l-321 344q-8 7 -15 7q-8 0 -15 -7l-321 -344v0l-26 -28v-380q30 -1 66 -1h167q-1 3 -1 6v253q0 28 18 47.5t43 19.5h140q25 0 42.5 -19.5t17.5 -47.5v-253v-6h164l66 1v380l-26 28h1zM577 735q-31 31 -75 31t-75 -31l-422 -423q25 -48 77 -62l399 397q4 4 8 7
q7 6 14 6t14 -6l7 -7l399 -397q52 14 77 62z" />
    <glyph glyph-name="tongzhi" unicode="&#xe628;" 
d="M862 107q0 1 -10.5 9.5t-13 10.5t-12.5 11t-13.5 13t-12 13.5t-12 15t-9.5 15t-8.5 17.5t-4.5 17.5t-2 18.5v220v0q-4 107 -57 170.5t-151 76.5q20 17 20 45q0 31 -21.5 57.5t-51 26.5t-51.5 -26.5t-22 -57.5q0 -28 20 -45q-98 -13 -151 -76.5t-57 -170.5v0v-220
q0 -12 -3 -24t-7 -21.5t-12.5 -21t-13.5 -18t-16 -17t-15.5 -14t-16.5 -13.5t-14 -12q-15 -20 -0.5 -28t38.5 -8h18h606h18q24 0 38.5 8t-0.5 28zM492.5 -76q46.5 0 81.5 30t42 75h-247q8 -45 42.5 -75t81 -30z" />
    <glyph glyph-name="gaikuang" unicode="&#xe629;" 
d="M611 120q0 1 -0.5 1.5t-1.5 0.5h-4q-2 0 -2 -2q0 -1 0.5 -1.5t1.5 -0.5h4q2 0 2 2zM605 151h4q2 0 2 2t-2 2h-4q-2 0 -2 -2t2 -2zM603 137q0 -2 2 -2h4q2 0 2 2t-2 2h-4q-2 0 -2 -2zM652 161h-4q0 2 -2 2h-37q-2 0 -2 -2v-4h2q4 0 4 -4t-4 -4h-2v-8h2q4 0 4 -4t-4 -4h-2
v-8h2q4 -1 4 -5t-4 -4h-2v-4q2 -6 6 -6h39q2 0 2 2v51v0q-1 2 -2 2zM617 149h27v-16h-27v16zM650 112q0 -2 -2 -2h-35q-2 1 -2 2h35q2 0 2 2v45h2v-47v0zM638 145h-16q-1 0 -1 -1t1 -1h16q1 0 1 1t-1 1zM638 139h-16q-1 0 -1 -1t0.5 -1h0.5h16q1 0 1 1v0.5t-1 0.5zM446 495
h-315q-13 0 -22 -9t-9 -22v-535q0 -13 9 -22.5t22 -9.5h315q13 0 22 9.5t9 22.5v535q0 13 -9 22t-22 9zM225 -40h-63v95h63v-95zM225 86h-63v95h63v-95zM225 212h-63v94h63v-94zM225 338h-63v94h63v-94zM320 86h-63v95h63v-95zM320 212h-63v94h63v-94zM320 338h-63v94h63
v-94zM414 -40h-63v95h63v-95zM414 86h-63v95h63v-95zM414 212h-63v94h63v-94zM414 338h-63v94h63v-94zM947 842l-407 -1q-13 0 -22 -9t-9 -22v-881q0 -8 7.5 -16t15.5 -12l8 -4h411q8 0 15 8t11 16l3 8v883q0 13 -10 21.5t-23 8.5zM634 -40h-63v63h63v-63zM634 55h-63v63h63
v-63zM634 149h-63v63h63v-63zM634 243h-63v63h63v-63zM634 338h-63v63h63v-63zM634 432h-63v63h63v-63zM634 527h-63v63h63v-63zM634 621h-63v63h63v-63zM634 715h-63v63h63v-63zM729 55h-63v63h63v-63zM729 149h-63v63h63v-63zM729 243h-63v63h63v-63zM729 338h-63v63h63
v-63zM729 432h-63v63h63v-63zM729 527h-63v63h63v-63zM729 621h-63v63h63v-63zM729 715h-63v63h63v-63zM823 55h-63v63h63v-63zM823 149h-63v63h63v-63zM823 243h-63v63h63v-63zM823 338h-63v63h63v-63zM823 432h-63v63h63v-63zM823 527h-63v63h63v-63zM823 621h-63v63h63
v-63zM823 715h-63v63h63v-63zM917 -40h-62v63h62v-63zM917 55h-62v63h62v-63zM917 149h-62v63h62v-63zM917 243h-62v63h62v-63zM917 338h-62v63h62v-63zM917 432h-62v63h62v-63zM917 527h-62v63h62v-63zM917 621h-62v63h62v-63zM917 715h-62v63h62v-63z" />
    <glyph glyph-name="search" unicode="&#xe623;" 
d="M998 -73l-303 303q104 114 104 267q0 108 -53.5 200t-145.5 145.5t-200.5 53.5t-200.5 -53.5t-145.5 -145.5t-53.5 -200.5t53.5 -200.5t145.5 -145.5t200 -53.5q153 0 267 104l303 -303q6 -6 14.5 -6t14.5 6t6 14.5t-6 14.5zM399.5 138q-97.5 0 -180 48t-130.5 130.5
t-48 180t48 180t130.5 130.5t180 48t180 -48t130.5 -130.5t48 -180t-48 -180t-130.5 -130.5t-180 -48z" />
    <glyph glyph-name="more1" unicode="&#xe677;" 
d="M184.5 390q-37.5 0 -64 -26.5t-26.5 -64t26.5 -64t64 -26.5t64 26.5t26.5 64t-26.5 64t-64 26.5zM512.5 390q-37.5 0 -64 -26.5t-26.5 -64t26.5 -64t64 -26.5t64 26.5t26.5 64t-26.5 64t-64 26.5zM838.5 390q-37.5 0 -64 -26.5t-26.5 -64t26.5 -64t64 -26.5t64 26.5
t26.5 64t-26.5 64t-64 26.5z" />
    <glyph glyph-name="service" unicode="&#xe605;" 
d="M256 416h-47h-4h-10h-9l3 24q8 31 19 61.5t35.5 71.5t55.5 71t80.5 52t109.5 23v92q-7 1 -19.5 1.5t-49.5 -3.5t-72 -14.5t-80.5 -38.5t-81.5 -68t-68.5 -110t-47.5 -159q-6 -21 1 -37q0 1 1.5 1.5l1.5 0.5l-1 -5l-2 2l-1 1q-70 -51 -70 -162v-88q0 -3 1.5 -7t10 -16.5
t22.5 -23.5t43 -25t68 -25q12 -9 26 -9h85q18 0 31 13t13 31v307q0 18 -12.5 28.5t-31.5 10.5zM885 416q1 -9 -1 -17v15l-1 3l1 -0.5l1 -0.5l-2 11q-16 88 -48 156t-68 107.5t-81 66t-79.5 37t-71.5 14t-49.5 2.5t-19.5 -2v0v-89q47 -1 88.5 -15t70.5 -34t53.5 -49t39 -55
t26.5 -56t17 -49t9 -37l-2 -8h-47q-19 0 -32.5 -10.5t-13.5 -28.5v-333q0 -7 2 -11t7 -5.5t9 -1.5t12.5 0.5t13.5 0.5h40q-21 -27 -44.5 -48t-43 -32t-36 -18t-25.5 -8l-9 -2l-0.5 -0.5l-0.5 -0.5q-5 32 -29.5 52.5t-57.5 22.5q-51 3 -84 -24.5t-33 -64.5q0 -52 31 -84
t84 -32q21 0 48.5 14t45.5 33q50 11 89 28.5t61.5 36t39.5 40t23.5 36.5t12 30.5t7.5 18.5q15 -3 23 0q48 6 82.5 21t49.5 28t23 31.5t8 22.5v10v89q0 47 -12.5 83t-34.5 57t-44 32t-48 17z" />
    <glyph glyph-name="deliver" unicode="&#xe606;" 
d="M352 320h-128q-13 0 -22.5 9.5t-9.5 22.5t9.5 22.5t22.5 9.5h96v96q0 13 9.5 22.5t22.5 9.5t22.5 -9.5t9.5 -22.5v-128q0 -13 -9.5 -22.5t-22.5 -9.5zM702 229q-46 0 -81.5 -28.5t-45.5 -72.5h-124q-10 44 -45.5 72.5t-81.5 28.5q-55 0 -93 -38.5t-38 -92.5t38 -92.5
t93 -38.5q44 0 79 27.5t47 69.5h126q12 -42 46.5 -69.5t79.5 -27.5q54 0 92.5 38.5t38.5 92.5t-38.5 92.5t-92.5 38.5zM323.5 31q-27.5 0 -47 19.5t-19.5 47.5t19.5 47.5t47 19.5t47.5 -19.5t20 -47.5t-20 -47.5t-47.5 -19.5zM702 31q-28 0 -47.5 19.5t-19.5 47.5t19.5 47.5
t47.5 19.5t47.5 -19.5t19.5 -47.5t-19.5 -47.5t-47.5 -19.5zM864 800h-464q-33 0 -56.5 -23.5t-23.5 -56.5v-92l-195 -98l-4 -2q-56 -40 -56 -112v-322q0 -13 9.5 -22.5t23 -9.5t22.5 9.5t9 22.5v322q0 38 27 58l210 105q1 1 2.5 2l1.5 1q4 3 5 4t4 5l3 6q0 2 1 6
q0 1 0.5 2.5t0.5 2.5v112q0 7 4.5 11.5t11.5 4.5h464q13 0 22.5 -9.5t9.5 -23.5v-607q0 -13 9.5 -22.5t22.5 -9.5t22.5 9.5t9.5 22.5v607q0 40 -28 68.5t-68 28.5z" />
    <glyph glyph-name="plus" unicode="&#xe640;" 
d="M1019 349h-458v459h-98v-459h-459v-98h459v-458h98v458h458v98z" />
    <glyph glyph-name="shegong" unicode="&#xe646;" 
d="M424 278q61 0 114 27.5t88 74.5q47 -46 112 -46q66 0 113 46.5t47 113t-47 113.5t-113 47q-45 0 -83 -24q-30 67 -92.5 109t-138.5 42q-104 0 -177.5 -74t-73.5 -178t73.5 -177.5t177.5 -73.5zM738 619q51 0 88 -37t37 -88.5t-37 -88t-88 -36.5q-55 0 -92 41
q30 56 30 119q0 33 -9 67q32 23 71 23zM424 725q81 0 138.5 -57.5t57.5 -138.5t-57.5 -138.5t-138.5 -57.5t-138.5 57.5t-57.5 138.5t57.5 138.5t138.5 57.5zM738 315q-110 0 -195 -84q-59 18 -119 18q-114 0 -214 -60.5t-166 -165.5q20 -18 42 -36q59 96 147.5 151
t190.5 55t191 -55t147 -151q23 18 43 36q-87 138 -224 194q71 63 157 63q65 0 121.5 -35.5t93.5 -95.5q14 10 27 23q-42 66 -105.5 104.5t-136.5 38.5z" />
    <glyph glyph-name="weixiu" unicode="&#xe630;" 
d="M946 688q26 -61 13 -129.5t-62 -117.5q-54 -54 -130 -63.5t-140 27.5l-62 -68l44 -45l27 27q10 10 24.5 10t24.5 -10l215 -218q10 -10 10 -24.5t-10 -24.5l-98 -98q-10 -10 -24.5 -10t-24.5 10l-216 217q-10 11 -10 25t10 25l24 24l-42 42l-298 -325q-20 -21 -49 -21
t-49 21l-25 24q-20 21 -20 49.5t20 49.5l340 284l-226 226h-71l-82 132l66 67l136 -83v-70l228 -229l67 56q-49 66 -43.5 149.5t65.5 143.5q49 49 116.5 62t128.5 -13l-146 -144l123 -123zM180 50q-10 10 -24.5 10t-25 -10t-10.5 -24.5t10.5 -24.5t25 -10t24.5 10t10 24.5
t-10 24.5z" />
    <glyph glyph-name="tuijian" unicode="&#xe687;" 
d="M404 489l223 214l-36 38q-6 5 -14 4.5t-14 -6.5l-193 -184q-6 -7 -6.5 -15t4.5 -13zM667 218q11 -12 28 -1l192 185q14 18 2 30l-51 53l-223 -214zM823 500l-223 -215l-180 188l222 214zM511 322l-11 11q-13 13 -28 11.5t-29 -14.5l-358 -312q-14 -14 -17.5 -29.5
t1 -27.5t14.5 -22l4.5 -4.5t11.5 -7.5t17.5 -7t21.5 2t25 15l341 329q14 13 16 27.5t-9 28.5zM877 108h-348q-7 0 -12 -5t-5 -12v-29q0 -7 5 -12t12 -5h348q7 0 12 5t5 12v29q0 7 -5 12t-12 5zM941 -19h-475q-7 0 -12 -5t-5 -13v-29q0 -7 5 -12t12 -5h475q7 0 12.5 5t5.5 12
v29q0 8 -5.5 13t-12.5 5z" />
    <glyph glyph-name="shuiguoshengxian" unicode="&#xe613;" 
d="M723 173q-12 1 -24 1q-35 0 -66 -10q-159 262 -125 409q3 -18 8 -37q16 -50 53 -87q37 -38 88 -52q30 -9 61 -10q43 1 78 13q-3 32 -10 62q-6 26 -17 51q-19 46 -55 82q-37 36 -83 54q-34 14 -66 17q44 36 117 52h17v29q-121 0 -203 -85q-45 -47 -77 -115.5t-46.5 -141.5
t-20.5 -126.5t-7 -104.5q-68 -4 -112 -44.5t-44 -105.5q0 -71 50 -120.5t120.5 -49.5t120 49.5t49.5 120.5q0 62 -40.5 101t-105.5 48q-4 0 -9 1q1 44 6 90.5t16 109.5t35 125t57 108v-1q-13 -33 -14.5 -72t6 -79t20 -80t31 -80.5t36.5 -74.5t39 -68q-36 -19 -56.5 -52
t-20.5 -76q0 -71 50 -120.5t120.5 -49.5t120 49.5t49.5 120.5q0 62 -40.5 101t-105.5 48zM528 644q19 -20 62.5 -63t78.5 -76l34 -33q-58 38 -104 77.5t-63 60.5l-17 21z" />
    <glyph glyph-name="fudao" unicode="&#xe632;" 
d="M872 609h-554q-10 0 -17 -5t-7 -12v-404q0 -8 7 -13t17 -5h341v-64l73 64h140q10 0 17 5t7 13v404q0 7 -7 12t-17 5zM284 128q-10 0 -17 7t-7 17v343h-106q-10 0 -17 -5t-7 -13v-404q0 -7 7 -12t17 -5h140l73 -64v64h298l-48 72h-333zM575 369v2q0 20 13 36l19 22
q14 17 14 32q0 11 -7 18t-19 7q-21 0 -29 -21q-5 -13 -17 -13q-8 0 -13 5t-5 12q0 5 2 9q6 19 22.5 30.5t40.5 11.5q28 0 45.5 -16.5t17.5 -42.5q0 -24 -18 -46l-21 -24q-8 -10 -8 -20v-2q0 -8 -5.5 -13t-13.5 -5t-13 5t-5 13zM593.5 332q9.5 0 16.5 -7t7 -16.5t-7 -16.5
t-16.5 -7t-16 7t-6.5 16.5t6.5 16.5t16 7z" />
    <glyph glyph-name="shunfengche" unicode="&#xe6bc;" 
d="M1022 313v0v-144q0 -47 -69 -47h-47q-8 -51 -47 -90.5t-88 -39.5q-48 0 -87 40.5t-47 92.5h-246q-8 -52 -47 -92.5t-87 -40.5q-49 0 -88 39.5t-47 90.5h-47q-69 0 -69 47v144v0v9v9q0 72 51.5 124t124.5 52q35 93 134 152.5t224 59.5q129 0 229.5 -62.5t133.5 -158.5
q53 -19 86 -64.5t33 -102.5v-9v-9zM697 102q5 -12 12 -22h1q1 -2 3 -4l1 -1q2 -3 4 -4v0v0q4 -4 8 -7l0.5 -0.5l0.5 -0.5l4 -2q1 -1 3 -2q1 -1 2.5 -2t3.5 -2q1 0 2 -0.5l1 -0.5q3 -1 7 -2l1 -0.5l1 -0.5q3 -1 5 -1q1 0 2 -1h6q1 -1 2 -1h7.5h7.5q1 0 3 1h5q1 1 2 1q3 0 6 1
l0.5 0.5t1.5 0.5l6 2l3 1q2 1 3.5 2t3.5 2q1 1 3 2t3 2l0.5 0.5t1.5 0.5q4 3 7 7h0.5h0.5q1 1 3 4l1 1l4 4v0q7 10 12 22q5 14 5 29q0 45 -47 68q-3 1 -7 3h-1q-3 1 -5 1.5t-4 1.5h-3q-3 1 -6 1h-1.5h-0.5q-4 1 -7.5 1t-7.5 -1h-0.5h-0.5q-3 0 -7 -1h-2q-3 -1 -5 -1.5
t-4 -1.5h-1q-4 -2 -8 -3q-47 -23 -47 -68q0 -15 5 -29zM179 99q5 -12 12 -22v0l4 -4q0 -1 1 -1q2 -2 3 -4h0.5h0.5q3 -4 7 -7l1 -0.5l1 -0.5q1 -1 3 -2t3 -2q2 -1 3.5 -1.5t4 -2l2.5 -1.5l6 -2q1 0 1.5 -0.5l0.5 -0.5q3 -1 6 -1l2 -1h5q2 -1 3 -1h7.5h7.5l2 1h5q2 1 3 1
q2 0 5 1l1 0.5l1 0.5q4 1 7 2l2.5 1.5t4 2t2.5 1.5q2 1 3 2q2 1 3 2q1 0 1.5 0.5l0.5 0.5q4 3 8 7v0v0l4 4q1 0 1 1q2 2 3 4v0q8 10 12 22q6 14 6 29q0 45 -47 68q-4 1 -8 3h-1q-2 1 -4 1.5t-5 1.5h-2q-4 1 -7 1l-1 1h-7.5h-7.5l-2 -1q-3 0 -6 -1h-3q-2 -1 -4 -1.5t-5 -1.5
h-1q-4 -2 -7 -3q-47 -23 -47 -68q0 -15 5 -29zM236 507h274v161q-94 -7 -168 -51t-106 -110zM548 669v-162h297v0q-34 71 -115 115.5t-182 46.5zM831 457l-625 3q-61 0 -104.5 -39.5t-45.5 -98.5h1v-126q0 -7 5 -12t12 -5h62q18 34 50.5 57t70 23t70 -23t50.5 -57h274
q18 34 50.5 57t69.5 23q39 0 71.5 -20t49.5 -53h62q7 0 12 5t5 12v116h1q-3 60 -42 99t-99 39z" />
    <glyph glyph-name="shumajiadian" unicode="&#xe614;" 
d="M512.5 430q-92.5 0 -158.5 -65.5t-66 -158.5t66 -159t158.5 -66t158.5 66t66 159t-66 158.5t-158.5 65.5zM511 45q-66 0 -112.5 47t-46.5 113t46.5 112.5t112.5 46.5t113 -46.5t47 -112.5t-47 -113t-113 -47zM900 555h-149l-55 113q-8 16 -25 17h-3h-305q-9 0 -16 -5
q-8 -5 -12 -13l-56 -112h-85v33q0 13 -10 22.5t-23.5 9.5t-23 -9.5t-9.5 -22.5v-33h-4q-51 0 -86.5 -35.5t-35.5 -85.5v-459q0 -51 35.5 -86.5t86.5 -35.5h776q51 0 86.5 35t35.5 85v461q0 50 -35.5 85.5t-86.5 35.5zM961 -25q0 -25 -18 -43t-43 -18h-776q-25 0 -43 18
t-18 43v457q0 25 18 42.5t43 17.5h178v1q16 1 23 16l56 111h270l54 -111q8 -15 24 -16v-1h171q25 0 43 -17.5t18 -42.5v-457zM800 428q-13 0 -22.5 -9.5t-9.5 -22.5t9.5 -22.5t22.5 -9.5t22.5 9.5t9.5 22.5t-9.5 22.5t-22.5 9.5z" />
    <glyph glyph-name="evaluate" unicode="&#xe607;" 
d="M406 -120q-15 0 -24 11q-24 26 -55.5 45t-57.5 28t-53.5 14t-38 6t-16.5 1v0q-13 0 -22.5 9t-9.5 22.5t9 23t22 9.5q6 0 21 -1t47 -7t64 -17t70 -34.5t67 -56.5q9 -10 8.5 -23t-10.5 -22q-9 -8 -21 -8zM620 -120q-12 0 -22 8q-9 9 -9.5 22.5t8.5 23.5q30 32 68.5 56
t70 34.5t63.5 16.5t46 7t21 1q13 0 22 -9.5t9 -23t-9.5 -22.5t-22.5 -9v0v0q-6 0 -16 -0.5t-37.5 -6t-53.5 -14.5t-58 -28.5t-56 -45.5q-10 -10 -24 -10zM564 43h-102q-5 0 -9 1q-81 11 -148 56.5t-112 121.5q-51 87 -62 191t23 186q8 19 29 19h10q91 0 169 -34
q57 103 128 155q4 3 8 5v0q16 7 31 -2l4 -4q71 -51 127 -156q79 36 173 36h10q21 0 29 -19q34 -82 23 -186t-62 -192q-45 -75 -112 -121t-148 -56q-5 -1 -9 -1zM468 107h90h2q140 16 217 147q41 69 52.5 151.5t-9.5 148.5q-88 -3 -159 -42q-12 -7 -25 -3t-19 17
q-49 99 -106 148q-58 -50 -106 -146q-6 -13 -19 -17t-25 3q-70 38 -155 40q-21 -66 -9.5 -148.5t52.5 -151.5q77 -131 217 -147h2zM513 -148q-13 0 -22.5 9.5t-9.5 22.5v191q0 13 9.5 22.5t22.5 9.5t22.5 -9.5t9.5 -22.5v-191q0 -13 -9.5 -22.5t-22.5 -9.5z" />
    <glyph glyph-name="help" unicode="&#xe608;" 
d="M512 738q-186 0 -318 -132t-132 -318t132 -318t318 -132t318 132t132 318t-132 318t-318 132zM512 -98q-105 0 -194 51.5t-140.5 140.5t-51.5 194t51.5 194t140.5 140.5t194 51.5t194 -51.5t140.5 -140.5t51.5 -194t-51.5 -194t-140.5 -140.5t-194 -51.5zM457 31h64v64
h-64v-64zM498 514q-70 0 -110 -43t-40 -113h58q2 43 14 65q21 40 76 40q45 0 64.5 -23.5t19.5 -54.5q0 -23 -14 -44q-7 -12 -19 -23l-27 -26q-38 -37 -49 -65t-11 -62h58q0 28 9.5 49t41.5 51q44 42 58 63t14 56q0 57 -39 93.5t-104 36.5z" />
    <glyph glyph-name="down" unicode="&#xe62c;" 
d="M112 481l-48 -49l448 -447l447 447l-48 49l-400 -399zM112 481z" />
    <glyph glyph-name="store" unicode="&#xe609;" 
d="M205 622h616q17 0 29.5 12t12.5 29.5t-12.5 30t-29.5 12.5h-616q-17 0 -29.5 -12.5t-12.5 -30t12.5 -29.5t29.5 -12v0zM882 580h-738l-79 -210q0 -47 33 -79.5t79 -32.5t79 32.5t33 79.5q0 -47 33 -79.5t79 -32.5t79 32.5t33 79.5q0 -47 33 -79.5t79 -32.5t79 32.5
t33 79.5q0 -47 32.5 -79.5t79 -32.5t79.5 32.5t33 79.5l-79 210v0zM835 216v0q-5 1 -12 2q-2 0 -2.5 0.5t-5.5 1.5q-12 3 -22 6v-206h-560v206q-10 -4 -22 -6q-1 0 -3 -0.5t-3 -1.5h-1h-1q-8 -1 -12 -2v0h-14q-14 0 -28 2v-282q0 -18 12.5 -30t29.5 -12h644q17 0 29.5 12
t12.5 30v282q-14 -2 -28 -2h-14v0zM835 216z" />
    <glyph glyph-name="up" unicode="&#xe621;" 
d="M948 103l-408 447q-12 12 -29 11q-17 1 -28 -11l-408 -447q-11 -11 -11 -26.5t11 -26.5t26.5 -11t26.5 11l383 420l384 -420q11 -11 26.5 -11t26.5 11t11 26.5t-11 26.5z" />
    <glyph glyph-name="zhekouicon" unicode="&#xe63e;" 
d="M472 501q-19 18 -40 18q-11 0 -16 -6q-5 -4 -5 -11q0 -18 18 -34q12 -11 29 -18.5t31 -7.5q8 0 9 2q3 6 -4 24.5t-22 32.5zM549 443h1t3 -0.5t5 -0.5q14 0 31 7.5t29 18.5q18 16 18 34q0 7 -5 11q-5 6 -16 6q-21 0 -40 -18q-15 -14 -22 -32.5t-4 -25.5v0zM523.5 766
q-90.5 0 -172.5 -35t-141.5 -94.5t-94.5 -141.5t-35 -172.5t35 -172.5t94.5 -141.5t141.5 -95t172.5 -35.5t172.5 35.5t141.5 95t94.5 141.5t35 172.5t-35 172.5t-94.5 141.5t-141.5 94.5t-172.5 35zM506 72h-158q-15 0 -25 10.5t-10 25.5v123h193v-159v0zM734 108
q0 -15 -10 -25.5t-25 -10.5h-158v159h193v-123zM734 266h-193v142q-10 3 -17 9q0 1 -1 1v-1q-7 -6 -17 -9v-142h-193v123q0 14 10 24.5t25 10.5h81q-14 8 -25 18q-24 23 -28 51.5t15 46.5q16 14 41 14q35 0 64 -27q17 -15 27 -37q11 22 28 37q29 27 64 27q25 0 41 -14
q19 -18 15 -46.5t-28 -51.5q-11 -10 -25 -18h81q15 0 25 -10.5t10 -24.5v-123v0z" />
    <glyph glyph-name="nanzhuang" unicode="&#xe615;" 
d="M893 137q-2 9 -4.5 26t-4.5 25q-1 10 -7 40q-1 7 -5 31t-7 38q-1 7 -5 30t-6 35q-4 20 -13 66q-6 33 -11 55q-7 37 -11 54q-3 9 -7 26t-6 24q-6 21 -28 30q-28 11 -67 17q-32 6 -50 8q-1 1 -30 3q-24 3 -30 4q-3 0 -5 -4q-7 -20 -20.5 -56.5t-17.5 -47.5l-21 -57l-17 108
l14 11l-21 26l-9 -7l-9 7l-21 -26l14 -11l-10 -107v1l-1 1v1l-1 1v1v1l-1 1v1l-1 1v1v1l-1 1v1l-1 1v1l-1 1v1v1l-1 1v1l-1 1v1v1l-1 1v1l-1 1v1v1l-1 1v1l-1 1v1v1l-1 1v1l-1 1v1v1l-1 1v1l-1 1v1v1l-1 1v1l-1 1v1l-1 1v1v1l-1 1v1l-1 1v1v1l-1 1v1l-1 1v1v1l-1 1v1l-1 1v1
v1l-1 1v1l-1 1v1v1l-1 1v1l-1 1v1v1l-1 1v1l-1 1v1v1l-1 1v1l-1 1v1l-1 1v1v1l-1 1v1l-1 1v1v1l-1 1v1l-1 1v1v1l-1 1v1l-1 1v1v1l-1 1v1l-1 1v1v1l-1 1v1l-1 1v1l-1 1v1v1l-1 1v1l-1 1v1v1l-1 1v1l-1 1v1v1l-1 1v1l-1 1v1v1l-1 1v1l-1 1v1v1l-1 1v1l-1 1v1v1l-1 1v1l-1 1v1
v1l-1 1v1l-1 1v1l-1 1v1v1l-1 1v1l-1 1v1v1l-1 1v1l-1 1v1v1l-1 1v1l-1 1v1l-1 1q-25 -2 -27 -3q-5 0 -28 -4q-36 -5 -41 -6q-26 -5 -50 -11q-5 -1 -15 -5t-11 -5q-18 -6 -23 -29q-17 -76 -22 -98q-1 -6 -12 -71q-12 -67 -13 -76q-3 -13 -6.5 -38.5t-5.5 -33.5q-1 -8 -4 -27
t-5 -29q-1 -9 -3 -19.5t-3.5 -23.5t-2.5 -20t-4 -20.5t-4 -20.5l0.5 -0.5l0.5 -0.5q0 -1 -1.5 -3.5t-1.5 -3.5h4q15 1 49 0.5t49 -0.5q5 0 6 5q2 11 6 30.5t5 26.5q2 11 5.5 30.5t4.5 28.5q3 13 9 43q2 10 5 28t5 25q9 49 11 57q2 10 5 29t5 29q5 26 10 44v-6
q0 -332 -1 -453q0 -6 7 -9q11 -4 55 -23q7 -3 57 -24q25 -10 29 -12t5 2q13 55 26 102q1 7 24 94l3 -11q28 -111 41 -162q0 -1 6 -28h3q19 8 20 9q9 4 48 20q9 4 30 13t33 14q16 7 22 10q1 1 3 4v5v446v6h0.5h0.5q40 -222 67 -369h111v10q-4 19 -4 20zM514 255
q-8 -1 -14 5.5t-5 13.5q0 8 5.5 14t13.5 5.5t13.5 -6t5.5 -13.5q0 -19 -19 -19zM677 435h-100v17h100v-17z" />
    <glyph glyph-name="cishan" unicode="&#xe667;" 
d="M918 713q-79 80 -191 80q-104 0 -181 -78v0v0l-29 -36l-29 34v0v0q-79 80 -181 80q-112 0 -191 -80t-79 -192.5t79 -192.5l359 -365q17 -18 42 -18t43 18l359 365q79 80 79 192.5t-79 192.5h-1zM849 336l-290 -292q-15 -14 -35 -14t-34 14l-290 292q-64 64 -64 154
t64 154t154 64q83 0 147 -64v0v0l23 -27l24 29v0v0q62 62 146 62q91 0 155 -64t64 -154t-64 -154v0zM610 524q-46 0 -80 -34v0v0l-13 -17l-13 16v0v0q-35 36 -79 36q-50 0 -85 -36t-35 -87t35 -87l158 -164q8 -8 19 -8t19 8l158 164q35 36 35 87t-35 87t-84 36v-1z" />
    <glyph glyph-name="settings" unicode="&#xe611;" 
d="M936 367l-95 16q-9 2 -17.5 9.5t-11.5 16.5l-11 27q-4 8 -3.5 19t6.5 19l55 78q6 8 5.5 18.5t-7.5 17.5l-57 57q-8 7 -18 7.5t-18 -5.5l-78 -55q-18 -13 -39 -4l-27 11q-8 4 -15.5 12.5t-9.5 17.5l-16 95q-1 9 -9 16t-17 8h-82q-9 -1 -17 -8t-9 -16l-16 -95
q-2 -9 -9.5 -17.5t-16.5 -11.5l-27 -11q-8 -4 -19 -3.5t-19 6.5l-78 55q-8 6 -18.5 5.5t-17.5 -7.5l-58 -57q-6 -7 -6.5 -17.5t5.5 -18.5l55 -78q13 -18 4 -39l-12 -27q-3 -8 -11.5 -15.5t-17.5 -9.5l-95 -16q-9 -1 -16 -9t-8 -17v-82q1 -9 8 -17t16 -9l95 -16
q9 -2 17.5 -9.5t11.5 -16.5l11 -27q4 -8 3.5 -19t-6.5 -19l-55 -78q-6 -8 -5.5 -18.5t7.5 -17.5l57 -57q7 -7 17.5 -7t18.5 5l78 55q8 6 19 7t20 -3l26 -11q9 -3 16.5 -12t9.5 -18l16 -95q1 -9 9 -16t17 -8h82q9 1 17 8t9 16l16 95q2 9 9.5 17.5t16.5 11.5l26 11q9 4 20 3.5
t19 -6.5l78 -55q8 -6 18.5 -5.5t17.5 7.5l57 57q6 7 6.5 17.5t-4.5 18.5l-55 78q-6 8 -7 19t3 20l12 27q3 8 11.5 15.5t17.5 9.5l95 16q9 1 16 9t8 17v82q-1 9 -8 17t-16 9zM511.5 108q-79.5 0 -135.5 56t-56 136t56 136t135.5 56t136 -56t56.5 -136t-56.5 -136t-136 -56z
" />
    <glyph glyph-name="jinlingyingcaiwangtubiao07" unicode="&#xe70a;" 
d="M815 -115q-8 0 -14 6q-5 5 -5.5 13t5.5 14q61 65 94 148t33 172q0 95 -37 181.5t-99.5 149t-149 99.5t-181.5 37q-8 0 -13.5 6t-5.5 13.5t5.5 13.5t13.5 6q103 0 196.5 -40t161 -108t108 -161.5t40.5 -196.5q0 -97 -36 -186.5t-102 -160.5q-6 -6 -14 -6zM461.5 650
q-111.5 0 -206.5 -55t-150 -150t-55 -206.5t55 -206.5t150 -150t206.5 -55t206 55t150 150t55.5 206.5t-55.5 206.5t-150 150t-206 55zM446 378q0 15 3 23t7.5 13t17 9.5t27.5 4.5h118q55 0 55 -49v-110q0 -21 -4 -33t-13 -20t-40 -8h-113q-29 0 -38.5 6.5t-14.5 16.5t-5 26
v121v0zM360 213v-206q0 -9 -5.5 -14.5t-12.5 -4.5q-8 0 -13 5.5t-5 13.5v203q-13 -22 -23.5 -39.5t-18.5 -31t-16.5 -19t-15.5 -5.5t-12 6t-3.5 13t10.5 22t14 23l25 39q16 27 23 44l7 20h-52q-7 0 -12 5t-4.5 13t5.5 13t11 5h62v69q-37 -9 -48 -9t-17 4.5t-5 14.5
q0 6 5 10.5t21.5 6.5t42.5 10q25 8 43 16q17 8 25.5 8t14.5 -5t6 -12q-1 -7 -7.5 -13.5t-19.5 -11.5l-25 -9v-79h48q7 0 12 -5t5.5 -12.5t-5 -13t-12.5 -5.5h-48v-13q25 -23 33 -32.5t24 -30.5q15 -22 14 -32q-1 -8 -6 -12t-11 -5q-12 -1 -25 17l-14 21zM504 123
q-21 -35 -25 -40q-3 -6 -25 -35q-21 -30 -32.5 -38.5t-19.5 -7.5q-5 1 -10.5 5t-5.5 11.5t10 19.5q21 25 30 36q8 11 22 32t23 41.5t15.5 26.5t10.5 7q7 2 13.5 -3t7 -17.5t-13.5 -37.5zM696 21q-1 -6 -9 -15t-22 6q-5 4 -10.5 15t-37.5 67q-32 54 -35 61.5t-3 10.5
q0 13 8 17t16 1t25 -29q16 -25 31 -50l20 -35q12 -20 15.5 -30.5t1.5 -18.5v0zM491.5 248.5q3.5 -1.5 12.5 -1.5h108q11 0 17 3.5t6 19.5v95q0 10 -2.5 14.5t-6 7t-12.5 2.5h-110q-8 0 -11.5 -2t-5 -7.5t-1.5 -15.5v-95q0 -9 1 -14t4.5 -6.5z" />
    <glyph glyph-name="dianpu" unicode="&#xe62f;" 
d="M881 569h-740l-77 -201q0 -45 32.5 -77.5t78.5 -32.5q47 0 80 32t33 78q0 -45 32.5 -77.5t78.5 -32.5q47 0 80 32t33 78q0 -45 32.5 -77.5t78.5 -32.5q47 0 79.5 32t32.5 78q0 -45 33 -77.5t79 -32.5q47 0 80 32t33 78zM819 223v-256h-614v256h-26h-38v-269
q0 -17 15.5 -34t32.5 -17h644q17 0 33 17t16 34v269h-51h-12zM881 570v0l2 -1zM192 620h640q16 0 27 11t11 27.5t-11 27.5t-27 11h-640q-16 0 -27 -11t-11 -27.5t11 -27.5t27 -11z" />
    <glyph glyph-name="chujie" unicode="&#xe634;" 
d="M268 280q0 -4 3 -7t7 -3h238q6 11 14 20h-252q-10 0 -10 -10v0zM585 374h-307q-10 0 -10 -10t10 -10h307q10 0 10 10t-10 10v0zM585 457h-307q-10 0 -10 -10t10 -10h307q10 0 10 10q0 4 -3 7t-7 3v0zM278 519h141q4 0 7 3t3 7q0 10 -10 10h-141q-10 0 -10 -10t10 -10v0z
M725 653l-109 107q-7 7 -17 7h-431q-11 0 -18 -7.5t-7 -17.5v-614q0 -11 7 -18l77 -74q7 -7 17 -7t18 7l77 75l81 -77q8 -8 18 -8t17 8l37 36q-9 28 -11 58l-43 -41l-81 78q-7 7 -17.5 7t-17.5 -7l-78 -75l-51 49v578h390v-83q0 -6 4.5 -10.5t10.5 -4.5h84v-238q19 3 37 3
h14v251q0 10 -8 18v0zM868 236l-101 -104l-21 20q43 44 73 75q-14 1 -19 1q-83 0 -150 -50t-92 -129h-28q3 11 5 16t3 8l6 15l4 8l7 14q2 3 5 8q5 9 8 13q1 2 3 4.5t2 3.5q9 11 17 20q6 7 8 9l9 9l9 9l10 8q3 2 10 8l10 6q5 4 13 9q7 4 8 4q12 7 22 11q1 1 3.5 2t3.5 1
q11 5 17 7q2 0 9 2q8 3 16 4q6 2 9 2q8 2 18 3q6 1 9 1q15 2 26 2q13 0 27 -2l-1 1l-73 78l20 19l95 -101l6 -8z" />
    <glyph glyph-name="badaxilietubiao01" unicode="&#xe616;" horiz-adv-x="1081" 
d="M841 386l9 -3q2 0 3 -1t1 -3l-5 -38l-1 -2q-5 -3 -34.5 3.5t-50.5 13.5h-2q-91 33 -163 118q-5 5 -14 17q16 51 78 43q50 -76 112 -114q35 -23 67 -34zM811 716zM715 716q0 40 28 68t67.5 28t68 -28t28.5 -68t-28.5 -68t-68 -28t-67.5 28t-28 68zM189 -31q-6 0 -9 5v0
q-4 6 -1 12v0l187 326q6 10 16 4v0q10 -5 4 -15v0l-177 -309h332l169 299h-303q-4 0 -7.5 3.5t-3.5 8.5v0q0 5 3 8t8 3v0h322q7 0 10 -5v0q4 -6 0 -12v0l-181 -323q-3 -6 -10 -6v0h-359v1zM0 -10q0 83 59 142t143 59v0q83 0 142 -59t59 -142v0v0q0 -84 -59 -143t-142 -59v0
q-84 0 -143 59t-59 143v0zM23 -10q0 -74 52.5 -126.5t126.5 -52.5v0q74 0 126 52.5t52 126.5v0v0q0 74 -52 126t-126 52v0q-74 0 -126.5 -52t-52.5 -126v0zM677 -10q0 83 59 142t143 59v0q83 0 142 -59t59 -142v0q0 -84 -59 -143t-142 -59v0q-84 0 -143 59t-59 143v0z
M700 -10q0 -74 52.5 -126.5t126.5 -52.5v0q74 0 126 52.5t52 126.5v0q0 74 -52 126t-126 52v0q-74 0 -126.5 -52t-52.5 -126v0zM877 -24q-35 78 -141 293v0q-26 54 -32 63v0q-3 3 -4 8v0q0 6 4 9v0q1 1 3 2v0q1 1 2 1v0h1.5h0.5v0h0.5h0.5v0h3v0q20 0 140 -3v0l45 53
q7 9 16 2v0q9 -8 1 -17v0l-49 -57q-3 -4 -9 -4v0l-4.5 0.5t-13 0.5h-19.5t-23.5 0.5t-24 0.5t-23 0.5t-19.5 0.5v0l20 -40v0q22 -45 60 -124v0q85 -177 85 -179v0v0q5 -10 -5 -15v0q-2 -1 -5 -1v0q-7 0 -10 6v0zM375 301l-87 2q-5 0 -8 3.5t-3 8.5v0q0 5 3.5 8t8.5 3v0
l87 -2q5 0 8 -3.5t3 -8.5v0q0 -5 -3.5 -8t-7.5 -3v0h-1v0zM479 399l-6 5v0l-3 20q1 -2 3 -11l-16 22l1 1q1 1 -1 2t-16 5q-30 7 -34 8q-5 1 -18 3.5t-20 4.5q-4 1 3.5 20t2.5 21q-1 1 -12 -5.5t-14 -8.5q-8 -7 -17 -24q-14 -25 -16 -44q-6 -49 23 -81q12 -13 26 -24
t35 -24.5t29 -19.5q2 -1 11 -7.5t11.5 -8t10 -7.5t11 -9.5t8.5 -9t8 -11.5q20 -29 19 -71q0 -62 -33 -145q0 -1 -5 -11q0 -1 0.5 -2t1.5 -1h59l1 1q15 23 35 73q35 89 28 149q-5 37 -26 73q-51 87 -75 108q-4 4 -8 5.5t-7 3.5zM696 659v0v0zM727 622q-4 20 -22 34t-45 17
q-66 9 -149 -47q-17 -11 -54 -40q-43 -32 -60 -47q-41 -39 -65 -77l143 -83v0.5t1 0.5q16 15 57 44.5t50 36.5q15 13 43 32t49.5 37t36.5 39q20 27 15 53zM696 659v0v0v0z" />
    <glyph glyph-name="close" unicode="&#xe6b5;" 
d="M975 -203q-17 0 -28 12l-926 926q-12 11 -12 28t11.5 28.5t28.5 11.5t28 -12l926 -926q12 -11 12 -28t-11.5 -28.5t-28.5 -11.5zM49 -203q-17 0 -28.5 11.5t-11.5 28.5t12 28l926 926q11 12 28 12t28.5 -11.5t11.5 -28.5t-12 -28l-926 -926q-11 -12 -28 -12z" />
    <glyph glyph-name="dongtai" unicode="&#xe633;" 
d="M564 818q0 -16 1.5 -42t2.5 -43q16 -1 71 2t72 0q6 11 8 39t4 35t5.5 10.5t10.5 1.5t10 -3.5l13 -6.5q9 -5 23 -14.5t19 -13.5q26 -15 27 -16q3 -2 12 -7.5t13 -9.5q2 -1 4 -5t4 -5q7 -6 30 -20t30 -24q-6 -10 -12 -11q0 -7 -1 -8q-19 -23 -74 -74t-79 -85q-3 0 -8.5 -3
t-10.5 -3q-6 1 -10.5 3.5t-7 7t-4.5 9t-2.5 12t-1 12t-0.5 12.5t-1 11q-12 2 -15.5 2t-15.5 -2.5t-16 -2.5q0 -2 -26 -0.5t-29 1.5q-31 0 -42 3q-2 -10 -3 -22t-1 -20t0.5 -22.5t0.5 -22.5q21 -1 57 -4h33.5t40 -2.5t24.5 -10.5q-10 -88 -16 -124q-2 -1 -5 -4t-4 -3
q-23 -3 -63.5 -5.5t-58.5 -3.5q-4 -32 -5 -75.5t0 -80t0 -81.5q-3 -82 1 -122q0 -2 2 -9.5t1 -9.5q0 -5 -6.5 -10t-8.5 -7q-11 1 -28.5 -1.5t-26.5 -3t-23 7.5q1 12 -12 19q-1 27 -2.5 89.5t-2 95t0.5 83.5t5 94q-12 0 -48.5 -1t-63 -1t-50.5 3q-8 -7 -6 -21t0.5 -30
t-11.5 -18q-3 0 -6 1.5t-6 0.5q-9 9 -69.5 64.5t-85.5 91.5q-9 7 -22 26q0 3 2.5 6t2.5 6q16 4 41 22.5t44 21.5q10 8 44.5 26t48.5 32q12 0 18.5 -7t7.5 -14t1.5 -22t1.5 -20q5 -4 13 -4t20 2t17 3q2 0 5 -1t4 -1q4 0 12 1.5t12 1.5q31 -1 79 2v36t2 47q-10 2 -44 1
q-11 0 -38 -3t-39 -3q-1 0 -4.5 2t-5.5 2q-18 1 -20 2l-3 4t-6 5q-1 1 -4.5 2t-5.5 2t-4 3q-1 3 -2 8q-2 12 1 37.5t3 35.5q0 3 -1 10.5t-0.5 13t3.5 9.5q53 18 165 16q0 2 1 79q0 1 -1 7t0 8q4 13 37 11q14 -2 25 -0.5t19.5 -1.5t11.5 -11zM502 809q-2 -29 3 -82q6 -1 29 2
q2 20 1.5 27.5t-2 25.5t-1.5 27q-5 -1 -16 0t-14 0zM751 779q7 1 8 -2q-1 -3 -4.5 -11t-5 -11.5t-4 -11t0.5 -10.5q1 5 9.5 20.5t9.5 27.5l-6 3l-6 3q0 -2 -1 -4t-1 -4zM772 760q5 2 10 6q1 -1 2.5 -1.5t1.5 -2.5q1 -1 2.5 0t3.5 1q-4 7 -12 8t-8 -11zM782 720q3 0 5 -4
t5 -5q3 6 9 20t10 20q-2 1 -7 5t-9 4q-1 -9 -6.5 -23t-6.5 -17zM754 717q5 2 10.5 9.5t9.5 9.5q1 18 -3 23q-16 -36 -17 -42zM820 743q-19 -36 -17 -51q6 5 10 12t8.5 18.5t6.5 15.5q-2 4 -8 5zM831 689q4 2 7.5 6.5t8 13.5t6.5 11q-6 -2 -9.5 -6.5t-7.5 -13t-5 -11.5z
M742 697q9 6 12 15q-4 0 -6 -2.5t-3.5 -6.5t-2.5 -6zM679 710q-35 -52 -49 -82q7 9 15.5 19.5t13.5 18.5t13.5 22.5t12.5 20.5q-2 1 -6 1zM836 666q6 4 13.5 18t15.5 17q0 1 1 3.5t0 4.5q-7 -2 -12 -9t-9.5 -18t-8.5 -16zM619 700q1 0 2 1.5t1.5 3t0.5 3.5h-4q1 -2 0.5 -4
t-1 -2.5t0.5 -1.5zM629 672q-4 -10 -17.5 -31t-17.5 -37q1 0 2.5 -0.5t2.5 -0.5q5 3 1 10q3 0 6 2q8 16 28.5 45.5t28.5 47.5q-11 -3 -20.5 -18t-13.5 -18zM686 640q2 -1 7 6.5t7 12.5q4 3 9.5 13.5t10.5 13.5q1 4 6.5 10.5t4.5 11.5q-16 -18 -45 -68zM584 707
q-1 -2 -8 -11.5t-9.5 -13.5t-7.5 -11.5t-7.5 -14t-4.5 -13.5q4 7 20 28t23 34q-3 2 -6 2zM780 701q0 1 2 1.5t2 2.5q-3 2 -5 -1q-1 -2 1 -3zM719 630q23 28 45 73q0 1 -2 1q-4 -6 -14 -22t-17 -28t-12 -24zM383 620q24 32 50 82q-9 -6 -17 -17.5t-12.5 -19.5t-11.5 -24
t-9 -21zM461 701q-8 -8 -33 -50q-2 -3 -7 -9.5t-7.5 -10.5t-4.5 -10.5t-1 -11.5q10 9 23 33t21 32q1 7 6.5 15t6.5 12h-4zM465 643q24 27 37 57l-1 0.5t-2 0.5q-8 -11 -18.5 -31t-15.5 -27zM482 639q15 15 41 62q-9 -7 -16 -17t-14 -24.5t-11 -20.5zM368 698q-5 -8 -6 -21
q10 11 13 23q-2 0 -3.5 -1t-3.5 -1zM359 640q7 5 10 13q3 6 12 21t11 24q0 2 -2 2q-3 -5 -11 -18t-12.5 -22.5t-7.5 -19.5zM700 636q0 -1 0.5 -2t0.5 -2q-8 -5 -4 -10q33 48 45 73q0 1 -2 1q-8 -10 -21 -30.5t-19 -29.5zM510 659q-1 -7 -12 -22.5t-10 -27.5q8 14 24.5 41
t24.5 42q-1 1 -3 2q-4 -5 -11.5 -17t-12.5 -18zM428 608q3 1 5.5 4.5t3.5 6l3 7.5t3 7q8 8 18.5 29t16.5 28q0 3 -2 3q-39 -61 -48 -85zM400 681q5 7 5 11q-4 0 -5 -4.5t0 -6.5zM609 692q-2 -7 -11.5 -20t-10.5 -22q3 4 12.5 18.5t13.5 23.5h-4zM547 686q-26 -42 -33 -64
q-3 -1 -4 -2t-2.5 -4t-1.5 -4l1.5 -2.5t3.5 -1.5q6 15 22 39.5t21 38.5h-7zM827 676q0 1 3 4.5t1 5.5q-6 -8 -4 -10zM796 684q-18 -24 -39 -61q9 4 19 24q1 1 4 4.5t4.5 5.5t3.5 5.5t2 7.5q9 3 10 14h-4zM395 680q-3 -6 -18.5 -33.5t-20.5 -42.5q34 51 43 76h-4zM850 657
q8 3 16 15q-8 -1 -16 -15zM802 659q-3 1 -6 -1q-4 -8 -13.5 -22.5t-12.5 -19.5q7 6 14 14.5t14.5 20.5t11.5 18q-1 0 -1.5 0.5t-1.5 0.5q-1 -1 -5 -11zM572 658q3 1 5.5 4.5t0.5 6.5q-6 -10 -6 -11zM763 574q5 0 7.5 6t6.5 6q4 13 20 32.5t20 34.5q0 1 -2 1q-41 -54 -52 -80
zM562 636l3 6l3 6q-4 -2 -6.5 -5.5t0.5 -6.5zM818 626q22 13 14 20q-1 -3 -7 -8.5t-7 -11.5zM464 608q6 3 11 14t7 13q-8 -3 -13.5 -12t-4.5 -15zM679 624q0 1 1.5 3.5t2 4t0.5 3.5q-1 -1 -3 -3.5t-2.5 -4t1.5 -3.5zM622 602l1 0.5t2 0.5q0 2 -1.5 5t-0.5 5h-4
q-2 -2 -1.5 -6.5t4.5 -4.5zM561 608q0 -5 9 -5q0 3 -3.5 5.5l-3.5 2.5q0 -1 -1.5 -1.5t-0.5 -1.5zM509 581q-9 -52 -1 -86q14 -2 24 -2q3 54 0 89q-2 -2 -11.5 -1t-11.5 0zM276 503q-8 -4 -13.5 -11t-12 -18.5t-8.5 -15.5q-3 -3 -15 -23t-20 -29q0 -6 -7 -17t-4 -17
q8 6 17 24t14 23q1 2 1 7q6 8 21.5 36t31.5 37q-1 3 -0.5 6t0 6t-2.5 4q-3 -4 -2 -12zM250 500q-10 -15 -15 -19q-4 -6 -11 -20l-10 -20q-1 -2 -5 -6.5t-6 -8t0 -8.5q8 13 25 41t26 41h-4zM246 390q-12 -22 -15 -26q1 -1 1.5 -3.5t-1.5 -3.5q-14 0 -9 15q29 47 53 91
q1 1 5 3t4 5q-3 12 -2 14q-5 -2 -7.5 -4.5t-5.5 -9.5t-4 -9q-2 -2 -9 -12t-8 -16q-1 0 -3 -2.5t-3 -2.5q-5 -14 -18 -34.5t-17 -31.5q2 -2 6 -7t8 -7.5t9 -3.5q4 13 14 31t14 27q-6 -2 -12 -13zM190 423q17 33 32 57q0 2 -2 3q-3 -7 -11 -18.5t-13 -21.5t-6 -20zM168 417
q-6 -1 -7 0q0 -3 2.5 -6t3.5 -4q7 3 15 1q0 1 1.5 3.5t1.5 4.5q-7 1 -9 5q1 13 10.5 29t10.5 19q-1 1 -3 1q-21 -34 -26 -53zM382 390q-3 -6 -12 -19t-10 -22h31q0 1 1 11q3 6 11.5 23.5t13 26t12.5 21.5t16 22q5 -1 7 -6q-36 -60 -49 -98q5 1 8 5t5.5 10.5t3.5 7.5
q6 13 20.5 37.5t21.5 37.5q3 1 6 5t6 4h4.5t3 -2l2.5 -2l4 4t4 6q-11 7 -46 6q0 -1 -0.5 -4.5t-1.5 -6.5q-18 -13 -37 -51.5t-30 -50.5q-4 2 -6 6q2 5 6 15.5t5 13.5zM498 461q3 -2 3 -7q0 -1 -1.5 -3t-0.5 -4q-1 -1 -7 -3q-29 -54 -35 -69q-12 -16 -12 -26q2 1 4.5 2.5
t3.5 3t2.5 5.5l1.5 4q20 39 31 55q0 1 1 3t1 4q3 2 5.5 5t5.5 8t5 7q-3 6 -3 10q5 6 16 9q-5 4 -12 3t-9 -7zM407 467q-1 -1 -0.5 -4.5t-0.5 -5.5q3 1 6.5 5t9.5 2q1 -1 1.5 -4t0.5 -4q3 1 8 10q-12 3 -25 1zM338 349q-1 1 -6 8q10 20 31.5 56.5t29.5 53.5
q-7 -5 -14.5 -18.5t-12.5 -17.5q-22 -44 -38 -63q0 -4 -4 -10t-3 -9q2 1 6 0.5t6.5 -0.5h4.5zM344 465q-11 -14 -21 -31t-22.5 -42l-17.5 -35q0 -1 4 0t6 0v8q31 52 43 80q10 8 11 19q-1 0 -3 1zM368 465q-22 -23 -29 -44q-1 -1 -3 -2.5t-3 -1.5q-3 -13 -15.5 -33t-16.5 -31
q7 -4 9 -4q2 5 2 11q5 10 23.5 39.5t26.5 47.5q12 11 9 18h-3zM579 465q-2 -4 -12.5 -19.5t-13.5 -26.5q-5 -3 -6 -4q-3 -14 -13.5 -33t-12.5 -28q6 -2 20 1q2 2 0 5.5t-2 4.5q2 4 2.5 11t2.5 9q4 10 15 27t13 21q2 3 4.5 9t3.5 8t4.5 4.5t5 5t1.5 5.5h-12zM320 464
q-20 -25 -34 -68h-2q-3 -2 -2 -4v-6q30 49 42 78h-4zM607 464l-1.5 -2.5t-1.5 -4.5q-38 -37 -47 -87q9 3 15.5 18.5t11.5 19.5q2 10 11.5 23.5t11.5 22.5l5 3t5 6q-5 2 -10 1zM648 463q-9 -13 -17 -29t-17.5 -37t-14.5 -32q4 -2 12 -1.5t14 -0.5q4 5 6 14q-1 1 -2.5 -0.5
l-3.5 -3.5t-3 -2q-3 2 -5 4t-2 5t0.5 5.5t2 5.5l2.5 5t3 5l2 3q3 5 11 21.5t13 23.5l4.5 4.5t4 4.5t2.5 5q-6 1 -12 0zM672 450q1 2 4 4.5t3 6.5l-1.5 0.5t-2.5 0.5q-4 -10 -3 -12zM630 456q0 1 1 2t1 3h-5q0 -4 3 -5zM289 458q-26 -30 -29 -51q1 1 5.5 9t9 11t10.5 2
q4 5 11 25q-4 5 -7 4zM539 454q-2 -2 0.5 -4.5t1.5 -5.5q-21 -24 -23 -42q-16 -24 -23 -50q4 0 7.5 -0.5t7 0t5.5 1.5q0 2 -2 3t-2 4q5 22 23.5 53t22.5 43q-2 -1 -8.5 -1t-9.5 -1zM157 423q1 5 6 15t7 17q-11 0 -17.5 -13t4.5 -19zM397 415q6 5 14 18.5t11 16.5
q-6 -1 -10.5 -6t-9.5 -16.5t-5 -12.5zM580 371q5 0 7.5 3t4 9t2.5 8q2 4 7 12t8.5 15t5.5 14q5 5 10 17q0 2 -2 1q-29 -41 -43 -79zM518 435q-3 0 -6.5 -2.5t-4.5 -2.5q-3 -6 -13.5 -24t-16.5 -30.5t-9 -24.5q2 -1 5.5 0t5.5 1q6 19 6 20q14 18 15 29q3 2 6 9.5t7 10.5
q-1 2 1 5t2 6q3 3 7 9.5t2 7.5q-3 0 -4.5 -2t-1.5 -6.5t-1 -5.5zM640 402q-4 -4 -7.5 -11.5t-0.5 -11.5q4 11 9 15v7q6 3 8 15q12 14 20 30q1 2 -1 3q-22 -18 -28 -47zM387 426q6 6 12 20q-5 -3 -9.5 -9.5t-2.5 -10.5zM677 437q4 -1 6 4q2 4 -2 5q0 -2 -1.5 -5t-2.5 -4z
M423 349h8q7 23 43 88q-1 1 -3 1q-29 -45 -48 -89zM655 394q13 13 15 29q-9 -11 -15 -29zM191 400q6 2 9 15q0 1 -2 1q0 -3 -4 -7t-3 -9zM390 402q1 3 4 6.5t4 5.5q-4 0 -7 -4.5t-1 -7.5zM661 368h4.5h5.5t4 1q0 5 2 17.5t1 19.5q-4 -6 -9 -19.5t-8 -18.5zM385 396h5
q0 5 -3 5q0 -1 -1 -2.5t-1 -2.5zM354 375q5 1 8.5 7t3.5 11q-3 -2 -6.5 -9t-5.5 -9zM259 375q12 10 6 15q-6 -9 -6 -15zM641 364q5 3 8 9.5t3 11.5q-2 -2 -5 -5.5t-4.5 -7t-1.5 -8.5zM271 365q1 2 3 4t3 4t1 5q-3 0 -5.5 -5t-1.5 -8zM340 349q9 -2 18 2q-8 3 -4 18
q-4 -1 -6 -4.5t-4 -8t-4 -7.5zM246 349q-4 -2 -6.5 -8t2.5 -9q1 4 6.5 16t5.5 19q-1 -2 -3.5 -5t-3.5 -5.5t-1 -7.5zM258 342q-1 -1 -0.5 -3.5t0.5 -4.5q-1 -1 -3.5 -4.5t-2.5 -6.5q1 -8 11 -10q10 12 6 50q0 -2 -5 -9t-6 -12zM501 325q-5 -43 -6.5 -96.5t-0.5 -84.5
t3 -98.5t3 -84.5q3 0 16 0.5t18 1.5q2 51 1.5 189.5t3.5 176.5q-1 0 -1.5 0.5l-0.5 0.5q-6 -3 -18.5 -3t-17.5 -2z" />
    <glyph glyph-name="tuoguan" unicode="&#xe635;" 
d="M853 646h-170v90l-85 89h-170l-85 -89v-90h-170q-35 0 -60 -26t-25 -63v-492q0 -37 25 -63t60 -26h680q35 0 60 26t25 63v492q0 37 -25 63t-60 26zM428 736h170v-90h-170v90zM722 297l-176 -191v114h-194v153h194v114z" />
    <glyph glyph-name="pingjia" unicode="&#xe631;" 
d="M223 207q50 11 99.5 -2.5t89.5 -50.5q18 -19 31.5 -42.5t20 -49t7 -51.5t-4.5 -50q-49 -11 -99 5.5t-89 55.5q-39 37 -52.5 87t-2.5 98v0v0zM802 207q11 -48 -2.5 -98t-51.5 -87q-19 -19 -44.5 -31.5t-53.5 -20.5t-58 -10.5t-59 -0.5h-42v272q-42 5 -79 23
q-28 15 -51.5 36.5t-40 48.5t-26 58t-9.5 65q0 46 18 89q35 -9 64 -26.5t53 -43.5q6 50 32 90.5t65 68.5q40 -28 66 -70t32 -92q23 26 52.5 44.5t64.5 26.5q17 -41 17 -87q0 -33 -9.5 -64t-26.5 -58t-40 -48.5t-51 -36.5v-1q-21 -10 -42 -16t-44 -8v-194q8 29 26 56.5
t42 50.5q19 19 43.5 33.5t50.5 23t53 10.5t51 -3v0v0zM802 207z" />
    <glyph glyph-name="dianzan" unicode="&#xe6a4;" 
d="M933 561q-11 3 -28 5t-47 3.5t-51 2t-70 1.5t-75 2q8 37 8 105q0 84 -50.5 150t-107.5 66q-39 0 -67 -28t-29 -67q0 -28 -5.5 -56.5t-18 -62t-39.5 -63.5t-65 -50q-22 -12 -34 -17l2 -2q-30 26 -64 26h-96q-40 0 -68 -28t-28 -68v-512q0 -40 28 -68t68 -28h96q28 0 51 15
t34 40h2t3.5 -1t4.5 -1h0.5h0.5q36 -9 130 -31q96 -22 191 -22h175q80 0 114 62q8 16 14 34q8 27 1 56q34 24 53 83q15 49 0 87q33 32 42 89q7 40 -12 76q26 29 27 69l1 7v16q0 34 -23.5 65.5t-67.5 44.5zM224 -32q0 -13 -9.5 -22.5t-22.5 -9.5h-96q-13 0 -22.5 9.5
t-9.5 22.5v512q0 13 9.5 22.5t22.5 9.5h96q13 0 22.5 -9.5t9.5 -22.5v-512zM959 431q-2 -47 -63 -47h-64q-7 0 -11.5 -4.5t-4.5 -11.5t4.5 -11.5t11.5 -4.5h62q32 0 43 -19.5t8 -39.5q-11 -69 -69 -69h-76q-7 0 -11.5 -4.5t-4.5 -11.5t4.5 -11.5t11.5 -4.5h63
q25 0 36.5 -11.5t9.5 -26t-4 -28.5q-1 -1 -2 -4q-5 -15 -8.5 -22.5t-12 -17.5t-24 -14t-38.5 -4h-52q-7 0 -11.5 -4.5t-4.5 -11.5t4.5 -11.5t11.5 -4.5h50q23 0 30 -16t3 -29q-2 -8 -9 -23q-15 -28 -58 -28h-175q-88 0 -177 20q-126 29 -149 36q-3 0 -7.5 1.5t-12 9
t-7.5 17.5v442q0 26 25 33q1 1 3.5 1.5t3.5 1.5q52 21 91 56.5t60 77t30.5 83t10.5 85.5q0 12 9 22t23 10q28 0 61 -46.5t33 -105.5q0 -56 -5 -82t-25 -86q152 0 226.5 -2t87.5 -3.5t32 -6.5q38 -11 38 -49q0 -1 -1 -20zM144 64q-20 0 -34 -14t-14 -34t14 -34t34 -14t34 14
t14 34t-14 34t-34 14zM144 0q-7 0 -11.5 4.5t-4.5 11.5t4.5 11.5t11.5 4.5t11.5 -4.5t4.5 -11.5t-4.5 -11.5t-11.5 -4.5z" />
    <glyph glyph-name="right" unicode="&#xe681;" 
d="M693 401l-328 328q-7 7 -17 7t-17 -7t-7 -17t7 -17l312 -311l-312 -311q-7 -7 -7 -17t7 -17q3 -2 7 -4q5 -3 10 -3v0q10 1 17 7l328 328q7 7 7 17t-7 17z" />
    <glyph glyph-name="linlihuzhu" unicode="&#xe6e4;" 
d="M455 39q-6 9 -18 25.5t-17 22.5q-41 -16 -56 -6.5t-20 55.5q-22 -6 -38 -6.5t-26.5 14.5t-13.5 49q-3 0 -9.5 -2.5t-9.5 -3t-9 0.5q-34 9 -41 20q-5 8 -5.5 23.5t4.5 21.5q20 19 24.5 37.5t-3 34.5t-26.5 35q-3 4 -4 11t-0.5 14t-0.5 15q2 0 5.5 1.5t4.5 1.5
q41 -50 46 -55q16 -16 33 -17q43 -3 43 -44q1 -14 7 -20t21 -10q11 -2 21.5 -11.5t15.5 -19.5q11 -25 36 -31q4 -1 7.5 -3t7.5 -5t6.5 -5.5l7 -7t6.5 -5.5q5 -5 14 -16t14 -16q14 -12 37 -27q21 -14 30 -15q6 0 13.5 4.5t11.5 9.5q2 3 -1 11t-8 12q-10 9 -31 25t-31 24
q-2 2 -3.5 5.5t-3 8.5t-2.5 8q3 -1 8.5 -0.5t9.5 0.5t6 -2q40 -27 108 -75q32 -23 48 0q19 27 -13 49q-74 53 -111 81q-3 3 -5.5 7.5t-4.5 11t-4 9.5q3 -1 9.5 -1.5t11 -1.5t7.5 -3q21 -14 127 -89q14 -10 15 -10q28 -18 43 4q19 25 -9 45q-22 16 -47 34t-55 40t-47 34
q-15 11 -16 13q0 1 -4 18q15 3 16 3q8 -3 23 -13q106 -75 149 -107q35 -25 57 0q25 28 -9 58q-152 134 -249 218q-25 21 -54.5 11.5t-38.5 -41.5q-18 -64 -74 -78q-19 -4 -48 7q-5 2 -9 10.5t-3 14.5q5 34 19 90q1 4 18 56h-83q2 22 12.5 31t30.5 7q33 -3 58 0q61 8 87 17
q66 23 143 3q16 -3 48.5 -10t48.5 -11q17 -4 23 -17q44 -88 112 -231q7 -15 3 -22q-7 -12 -8.5 -25t1 -23t8.5 -25q9 -23 -3 -45.5t-37 -30.5q-23 -6 -29 -30q-11 -41 -69 -45q-15 -38 -34.5 -47.5t-58.5 2.5q-4 1 -24 -7q-5 -3 -16.5 -9.5t-19.5 -9.5t-14 -2
q-23 7 -37.5 -0.5t-30.5 -26.5h-24v0v0zM198 729q52 -28 56 -30q23 -13 12 -36q-26 -55 -130 -272q-13 -26 -39 -13q-3 2 -63 35v18q71 136 78 151q4 7 74 147h12v0zM836 729q27 -44 28 -46q14 -27 55 -110t64 -128q9 -19 5 -30t-23 -20t-26 -12t-18 -5t-13.5 -0.5t-10 9
t-11 15t-12.5 26.5q-102 208 -112 228q-16 32 15 46q3 1 47 27h12zM836 729z" />
    <glyph glyph-name="change" unicode="&#xe61f;" 
d="M957 372v0.5v1v1v0.5v-3zM511 -8q-123 0 -221.5 70.5t-137.5 183.5h200q13 0 22.5 9.5t9.5 22.5t-9.5 22.5t-22.5 9.5h-255v0q-5 0 -11 -2q-2 -1 -3 -2q-3 -1 -6 -4q-7 -6 -10 -13v0v0q-2 -6 -2 -11v-255q0 -13 9.5 -22.5t22.5 -9.5t22.5 9.5t9.5 22.5v122
q59 -99 160.5 -158t221.5 -59q110 0 206 50t158 137.5t77 194.5h-65q-23 -137 -129 -227.5t-247 -90.5v0zM65 375v-0.5v-1v-1v-0.5v3zM511 755q123 0 221.5 -70.5t137.5 -183.5h-200q-13 0 -22.5 -9.5t-9.5 -22.5v0v0q0 -15 12 -24q10 -8 20 -8h255v0v0h1v0q4 0 9 2
q22 7 22 30v1v1v253q0 13 -9.5 22.5t-22.5 9.5t-22.5 -9.5t-9.5 -22.5v-123q-59 100 -160.5 159t-221.5 59q-110 0 -206 -50t-158 -137.5t-77 -194.5h65q23 136 129 227t247 91z" />
    <glyph glyph-name="bubble" unicode="&#xe600;" horiz-adv-x="1025" 
d="M26 -77q-20 0 -25 19t11 29q98 58 136 163q-71 54 -109.5 125.5t-38.5 150.5t39 151q38 69 106 122q68 54 156.5 82.5t185 28.5t184.5 -28.5t157 -82.5q68 -53 105 -122q40 -72 40 -151.5t-40 -151.5q-37 -69 -105 -122q-69 -53 -157 -81.5t-185 -28.5q-79 0 -154 19
q-55 -36 -112 -65q-115 -57 -194 -57v0zM486 742q-118 0 -218 -44.5t-158.5 -121t-58.5 -166.5q0 -70 37 -134.5t104 -111.5q15 -10 10 -27q-20 -78 -81 -143q93 32 192 100q10 7 21 4q74 -21 152 -21q118 0 218.5 44.5t159 121t58.5 167t-58.5 167t-159 121t-218.5 44.5z
" />
    <glyph glyph-name="cart" unicode="&#xe601;" 
d="M409.5 -128q-42.5 0 -72.5 30t-30 72.5t30 72.5t72.5 30t72.5 -30t30 -72.5t-30 -72.5t-72.5 -30zM409.5 26q-21.5 0 -36.5 -15t-15 -36.5t15 -36.5t36.5 -15t36.5 15t15 36.5t-15 36.5t-36.5 15zM768 -128q-42 0 -72 30t-30 72.5t30 72.5t72 30t72 -30t30 -72.5
t-30 -72.5t-72 -30zM768 26q-21 0 -36 -15t-15 -36.5t15 -36.5t36 -15t36 15t15 36.5t-15 36.5t-36 15zM898 667q-20 24 -53 24h-627l-5 31q-5 30 -29.5 51t-55.5 21h-51q-11 0 -18.5 -7.5t-7.5 -18.5t7.5 -18.5t18.5 -7.5h51q12 0 22 -8.5t12 -20.5l86 -513q5 -30 29.5 -51
t55.5 -21h512q10 0 17.5 7.5t7.5 18t-7.5 18t-17.5 7.5h-512q-12 0 -22.5 9t-12.5 20l-12 76l510 44q30 3 54 25t28 52l35 206q5 33 -15 56v0zM862 619l-34 -206q-2 -12 -13 -22t-23 -12l-515 -44l-51 305h619q9 0 14 -6t3 -15v0z" />
    <glyph glyph-name="back" unicode="&#xe604;" 
d="M717 -128q10 0 17.5 7.5t7.5 18t-7 18.5l-443 442l443 443q7 8 7 18.5t-7.5 18t-18 7.5t-17.5 -8l-461 -461q-8 -7 -8 -17.5t8 -18.5l461 -461q7 -7 18 -7v0z" />
    <glyph glyph-name="home" unicode="&#xe602;" horiz-adv-x="1025" 
d="M1017 273l-452 500q-21 24 -53 24v0q-32 0 -53 -24l-452 -500q-7 -8 -6.5 -18.5t7.5 -17.5q8 -7 18 -7q11 0 19 9l109 120v-410q0 -32 22.5 -54.5t53.5 -22.5h564q31 0 53.5 22.5t22.5 54.5v410l109 -120q7 -8 18 -8.5t18.5 6.5t8 17.5t-6.5 18.5v0zM614 -77h-204v231
q0 10 7.5 17.5t17.5 7.5h154q10 0 17.5 -7.5t7.5 -17.5v-231zM819 -51q0 -11 -7.5 -18.5t-17.5 -7.5h-128v231q0 31 -22.5 53.5t-54.5 22.5h-154q-32 0 -54.5 -22.5t-22.5 -53.5v-231h-128q-10 0 -17.5 7.5t-7.5 18.5v467l292 322q6 8 15 8t15 -8l292 -322v-467z" />
    <glyph glyph-name="user" unicode="&#xe603;" 
d="M486.5 333q-116.5 0 -199 82.5t-82.5 199t82.5 199t199 82.5t199 -82.5t82.5 -199t-82.5 -199t-199 -82.5zM486.5 845q-95.5 0 -163 -67.5t-67.5 -163t67.5 -163t163 -67.5t163 67.5t67.5 163t-67.5 163t-163 67.5zM896 -128h-819q-32 0 -54.5 22.5t-22.5 54.5
q0 10 2 27.5t17.5 61t43.5 80.5q54 72 147 113q113 51 276.5 51t276.5 -51q93 -41 147 -113q28 -37 43.5 -80.5t17.5 -61t2 -27.5q0 -32 -22.5 -54.5t-54.5 -22.5zM486.5 230q-272.5 0 -381.5 -141q-48 -63 -54 -140q0 -11 7.5 -18.5t18.5 -7.5h819q11 0 18.5 7.5t7.5 18.5
q0 7 -2 21.5t-15.5 51.5t-37.5 67q-108 141 -380.5 141z" />
    <glyph glyph-name="more" unicode="&#xe64d;" 
d="M0 384q0 -51 36 -86.5t86.5 -35.5t86.5 35.5t36 86.5t-36 86.5t-86.5 35.5t-86.5 -35.5t-36 -86.5zM390 384q0 -51 35.5 -86.5t86.5 -35.5t86.5 35.5t35.5 86.5t-35.5 86.5t-86.5 35.5t-86.5 -35.5t-35.5 -86.5zM779 384q0 -51 36 -86.5t86.5 -35.5t86.5 35.5t36 86.5
t-36 86.5t-86.5 35.5t-86.5 -35.5t-36 -86.5z" />
    <glyph glyph-name="shangjia" unicode="&#xe661;" 
d="M324 -128q-43 0 -73.5 30.5t-30.5 73t30.5 73t73.5 30.5t73 -30.5t30 -73t-30 -73t-73 -30.5zM324 28q-22 0 -37 -15.5t-15 -37t15 -37t37 -15.5t37 15.5t15 37t-15 37t-37 15.5zM872.5 -128q-42.5 0 -73 30.5t-30.5 73t30.5 73t73 30.5t73 -30.5t30.5 -73t-30.5 -73
t-73 -30.5zM872.5 28q-21.5 0 -37 -15.5t-15.5 -37t15.5 -37t37 -15.5t37 15.5t15.5 37t-15.5 37t-37 15.5zM873 28h-549q-11 0 -18.5 7.5t-7.5 18t7.5 18t18.5 7.5h549q10 0 17.5 -7.5t7.5 -18t-7.5 -18t-17.5 -7.5zM458 664h-238q-11 0 -18.5 7.5t-7.5 18t7.5 18t18.5 7.5
h238q10 0 17.5 -7.5t7.5 -18t-7.5 -18t-17.5 -7.5zM848 182l-534 1q-10 1 -17.5 8.5t-7.5 18t7.5 18t17.5 7.5h1l531 -2q2 1 3 2l102 427l-3 2h-2h-209q-11 0 -18.5 7.5t-7.5 18t7.5 18t18.5 7.5h209q29 0 45 -22q16 -20 9 -43l-102 -427q-4 -18 -18 -29t-32 -12zM324 183
q-20 0 -25 20l-142 577h-109q-11 0 -18.5 7.5t-7.5 18t7.5 18t18.5 7.5h150l151 -616q2 -10 -3.5 -19t-15.5 -12q-3 -1 -6 -1zM324 28q-43 0 -73.5 30t-30.5 73t30.5 73.5t73.5 30.5q10 0 17.5 -7.5t7.5 -18.5t-7.5 -18.5t-17.5 -7.5q-22 0 -37 -15t-15 -36.5t15 -37
t37 -15.5q10 0 17.5 -7.5t7.5 -18t-7.5 -18t-17.5 -7.5zM708 740q-10 0 -18 7l-91 88l-91 -88q-8 -8 -18.5 -7.5t-18 8t-7 18t7.5 18.5l109 105q8 7 18 7t18 -7l109 -105q7 -8 7.5 -18.5t-7 -18t-18.5 -7.5zM599 521q-11 0 -18.5 7.5t-7.5 18.5v323q0 11 7.5 18.5t18.5 7.5
t18.5 -7.5t7.5 -18.5v-323q0 -11 -7.5 -18.5t-18.5 -7.5z" />
    <glyph glyph-name="shequ" unicode="&#xe624;" 
d="M229 450h137q4 0 4 4v68q0 4 -4 4h-137q-4 0 -4 -4v-68q0 -4 4 -4zM248 503h100v-31h-100v31zM435 259h138q4 0 4 4v69q0 4 -4 4h-138q-3 0 -3 -4v-69q0 -4 3 -4zM454 314h100v-33h-100v33zM435 450h138q4 0 4 4v68q0 4 -4 4h-138q-3 0 -3 -4v-68q0 -4 3 -4zM454 503h100
v-31h-100v31zM435 74h138q4 0 4 3v68q0 4 -4 4h-138q-3 0 -3 -4v-68q0 -3 3 -3zM454 127h100v-31h-100v31zM229 259h137q4 0 4 4v69q0 4 -4 4h-137q-4 0 -4 -4v-69q0 -4 4 -4zM248 314h100v-33h-100v33zM723 39q0 -4 4 -4h69q4 0 4 4v137q0 4 -4 4h-69q-4 0 -4 -4v-137z
M746 158h32v-100h-32v100zM229 74h137q4 0 4 3v68q0 4 -4 4h-137q-4 0 -4 -4v-68q0 -3 4 -3zM248 127h100v-31h-100v31zM727 257h69q4 0 4 4v137q0 4 -4 4h-69q-4 0 -4 -4v-137q0 -4 4 -4zM746 380h32v-100h-32v100zM891 -103v614q0 32 -16 48q-14 14 -43 14h-115v-45h113h3
q9 1 11 0q3 -3 3 -17v-614h-179v748q0 33 -20 51q-17 15 -42 13h-417q-29 0 -45 -18q-19 -21 -17 -53v-741h-64v-44h892v44h-64zM172 641q-1 13 5 20q3 4 12 4h418h3v0q5 0 8 -3q5 -4 5 -17v-748h-451v742v2z" />
    <glyph glyph-name="wujiaoxingman" unicode="&#xe639;" 
d="M957.5 407.5q-3.5 10.5 -14.5 10.5h-319l-99 303q-3 11 -13.5 11t-14.5 -11l-98 -303h-320q-10 0 -13.5 -10.5t5.5 -16.5l258 -188l-99 -303q-3 -10 6 -17q4 -2 8.5 -2t8.5 2l258 188l259 -188q8 -6 17 0.5t5 16.5l-98 303l258 188q9 6 5.5 16.5z" />
    <glyph glyph-name="wujiaoxingban" unicode="&#xe63b;" 
d="M956.5 407q-4.5 15 -20.5 15h-309l-95 294q-5 15 -21 15t-20 -15l-96 -294h-309q-16 0 -20.5 -15t7.5 -24l250 -181l-95 -294q-5 -15 7.5 -24.5t25.5 -0.5l250 182l250 -182q6 -4 13 -4t12 4q13 10 8 25l-95 294l250 181q12 9 7.5 24zM661 227q-13 -9 -8 -24l80 -245
l-209 151q-6 4 -13 4v526v1l80 -246q5 -15 20 -15h259z" />
    <glyph glyph-name="wujiaoxingkong" unicode="&#xe63c;" 
d="M773 -123q-7 0 -12 4l-250 182l-250 -182q-13 -9 -25.5 0t-7.5 24l95 294l-250 181q-12 10 -7.5 24.5t20.5 14.5h309l95 294q5 15 21 15t20 -15l96 -294h309q15 0 20 -14.5t-8 -24.5l-250 -181l96 -294q5 -15 -8 -24q-6 -4 -13 -4zM153 376l208 -151q13 -10 8 -25
l-80 -245l209 152q13 9 26 0l208 -152l-79 245q-5 15 7 25l209 151h-258q-16 0 -20 15l-80 246l-80 -246q-5 -15 -20 -15h-258z" />
    <glyph glyph-name="jiajubaihuo" unicode="&#xe617;" 
d="M896 481v128q0 27 -18.5 45.5t-45.5 18.5h-640q-27 0 -45.5 -18.5t-18.5 -45.5v-128q-45 0 -81 -27t-47 -69v-224v-64v-64q0 -26 18.5 -45t45.5 -19h64v-32q0 -13 9.5 -22.5t22.5 -9.5t22.5 9.5t9.5 22.5v32h576v-32q0 -13 9.5 -22.5t22.5 -9.5t22.5 9.5t9.5 22.5v32h128
q27 0 45.5 19t18.5 45v64v64v224q-11 42 -47 69t-81 27zM192 609h640v-144q-50 -28 -64 -80v-160q-14 8 -39 18.5t-92.5 28t-124.5 17.5t-121 -16t-99 -32l-36 -16v160q-13 53 -64 80v144zM960 161v-64v-64h-896v64v64v215q7 18 25 29.5t39 11.5t39 -11.5t25 -29.5v-151
q0 -35 30 -54q16 -9 34 -9q15 0 29 6q9 5 34.5 16t84.5 26t108 15t108 -15t84.5 -26t34.5 -16q14 -7 29 -7q18 0 34 10q30 19 30 54v151q7 18 25 29.5t39 11.5t39 -11.5t25 -29.5v-215z" />
    <glyph glyph-name="muyingyongpin" unicode="&#xe618;" horiz-adv-x="1295" 
d="M902 -124h-482v539h483l-1 -539v0zM464 -80h395v451h-395v-451zM892 -113h-461v131h461v-131zM453 -91h416v87h-416v-87zM965 154v45q35 0 60.5 25t25.5 60.5t-25.5 61t-60.5 25.5h-607q-36 0 -61 -25.5t-25 -61t25 -60.5t61 -25v-45q-54 1 -92 39t-38 92t38 92t92 38
h607q54 0 92 -38t38 -92t-38 -92.5t-92 -38.5zM941 371h-559v164h559v-164v0zM426 415h471v76h-471v-76zM893 491h-463l231 231zM536 535h251l-126 125zM720 726q0 -24 -17.5 -41.5t-41.5 -17.5t-41 17.5t-17 41.5t17 41t41.5 17t41.5 -17t17 -41zM782 312h22v-165h-22v165z
M781 113h24v-24h-24v24z" />
    <glyph glyph-name="zuixin" unicode="&#xe61d;" horiz-adv-x="1036" 
d="M947 773h-802q-9 0 -15.5 -6.5t-6.5 -15t6.5 -15t15.5 -6.5h802q18 0 31 -12t13 -30v-677q0 -17 -13 -29.5t-31 -12.5h-846q-19 0 -32 12.5t-13 29.5v635q0 9 -6.5 15t-15.5 6t-15.5 -6t-6.5 -15v-635q0 -35 26 -59.5t63 -24.5h846q37 0 63 24.5t26 59.5v677q0 35 -26 60
t-63 25zM591 540q9 0 15.5 6.5t6.5 15t-6.5 14.5t-15.5 6h-156q-10 0 -16.5 -6t-6.5 -15v-423q0 -8 6.5 -14.5t16.5 -6.5h156q9 0 15.5 6.5t6.5 15t-6.5 14.5t-15.5 6h-134v170h134q9 0 15.5 6t6.5 15t-6.5 15t-15.5 6h-134v169h134zM190 138v311l133 -311q10 -21 23 -21
q9 0 15.5 6.5t6.5 14.5v423q0 9 -6.5 15t-16 6t-16 -6t-6.5 -15v-311l-133 311q-4 8 -6 11.5t-6.5 6.5t-9.5 3q-10 0 -16.5 -6t-6.5 -15v-423q0 -8 6.5 -14.5t16 -6.5t16 6.5t6.5 14.5zM679.5 582q-9.5 0 -16 -6t-6.5 -15v-423q0 -8 6.5 -14.5t16.5 -6.5q8 0 12.5 5.5
t9.5 15.5l77 171l79 -171q4 -7 5.5 -10.5t6 -7t10.5 -3.5q9 0 15.5 6.5t6.5 14.5v423q0 9 -6.5 15t-15.5 6t-15.5 -6t-6.5 -15v-316l-58 128q-4 8 -12.5 11t-16.5 0q-7 -3 -11 -10l-58 -128v315q0 9 -6.5 15t-16 6z" />
    <glyph glyph-name="fund" unicode="&#xe60a;" 
d="M907 416q-81 87 -190 133q99 12 159 -49q6 -7 16 -7q8 0 14 5q7 6 7.5 14t-5.5 14q-61 62 -154 64q79 34 152 -3q8 -4 16.5 -2t13 9.5t2 15t-10.5 11.5q-33 17 -67 22t-59 2.5t-55 -15t-45 -20.5t-39 -24l-1 -0.5l-1 -0.5q-10 82 51 164q2 2 2 4l2 2q7 9 10.5 14.5
t8.5 15.5t7 17t2 15.5t-4 14.5q-12 20 -44 20q-19 0 -56 -9q-31 -7 -43 -7q-17 0 -26 9q-54 51 -92 51q-39 0 -77 -47q-12 -15 -32.5 -19t-63.5 -4q-79 0 -93 -32q-13 -30 28 -68q2 -1 5 -3q85 -74 82 -165q-120 -31 -219 -146q-52 -60 -80 -126.5t-28 -127.5q0 -84 28 -139
q29 -58 93 -90q57 -30 150 -43.5t241 -13.5t240.5 13.5t150.5 43.5q64 33 93 91q28 54 28 138q0 135 -117 258v0zM259 782q16 4 46 4q34 0 51.5 1.5t41 10.5t38.5 27q25 31 42 31q20 0 61 -39q22 -21 57 -21q17 0 53 8q27 6 39 7v-4q1 -6 -9.5 -15.5t-33.5 -25.5
q-30 -22 -46 -35q-25 -21 -47 -19q-12 1 -19 9q-34 40 -65 42q-15 1 -30 -5.5t-24.5 -14t-26.5 -22.5q-16 -13 -38 -10q-46 7 -90 71v0zM620 563q-88 -41 -180 -28q-38 6 -70 19q3 62 -29 118h1h1q7 -1 14 -1q34 0 59 21q37 32 48 31q13 -1 36 -27q19 -21 48 -24
q41 -3 80 29q4 4 10 9q-33 -74 -18 -147v0zM882 -36q-100 -52 -370 -52q-271 0 -370 51q-52 27 -75.5 73.5t-23.5 121.5q0 54 26 114t72 115q44 51 98 86.5t106 48.5q38 -19 86 -26q26 -4 53 -4q84 0 163 39q61 -18 121 -55t107.5 -86t76.5 -110t29 -122q0 -75 -23.5 -121
t-75.5 -73v0zM882 -36zM617 360q-8 0 -13.5 -3t-9.5 -8q-4 -4 -8 -10q-4 -7 -7 -12l-65 -99l-72 105q-9 14 -16 20.5t-19 6.5q-11 0 -18 -6.5t-7 -17.5q0 -6 2.5 -11t10.5 -17l67 -97h-29q-31 0 -31 -19t31 -19h50v-30h-50q-31 0 -31 -19t31 -19h50v-17q0 -42 31 -42
q30 0 30 42v17h51q31 0 31 19t-31 19h-51v30h51q31 0 31 19t-31 19h-29l65 99q6 9 8.5 15t2.5 13q0 9 -7 15.5t-18 6.5v0zM617 360z" />
    <glyph glyph-name="gonggao" unicode="&#xe67c;" 
d="M619 369q-80 0 -137 -57t-57 -137t57 -137t137 -57t137 57t57 137t-57 137t-137 57zM619.5 24q-62.5 0 -107 44.5t-44.5 107t44.5 106.5t107 44t106.5 -44t44 -106.5t-44 -107t-106.5 -44.5zM622 289l-27 -79h-85l69 -50l-28 -80l70 49l68 -49l-25 80l69 50h-85zM497 643
h304v-36h-304v36zM415 520h386v-36h-386v36zM829 885h-637q-44 0 -74.5 -31t-30.5 -74v-801q0 -43 30.5 -74t74.5 -31h637q43 0 74 31t31 74v801q0 43 -31 74t-74 31zM142 780q0 20 14.5 34.5t35.5 14.5h138l-188 -188v139zM878 -21q0 -20 -14.5 -34.5t-34.5 -14.5h-637
q-21 0 -35.5 14.5t-14.5 34.5v452l398 398h289q20 0 34.5 -14.5t14.5 -34.5v-801z" />
    <glyph glyph-name="shegongcanyu" unicode="&#xe64f;" horiz-adv-x="1081" 
d="M982 -128h-883q-41 0 -70 29t-29 70v826q0 41 29 70t70 29h364q30 0 55 -17.5t36 -44.5h313q41 0 70 -20t29 -48v-22h16q41 0 70 -29t29 -70v-674q0 -41 -29 -70t-70 -29v0zM920 766q0 7 -15.5 14.5t-37.5 7.5h-306v-44h359v22zM1035 645q0 22 -15.5 37.5t-37.5 15.5
h-466v99q0 22 -15.5 37.5t-37.5 15.5h-364q-22 0 -37.5 -15.5t-15.5 -37.5v-826q0 -22 15.5 -37.5t37.5 -15.5h883q22 0 37.5 15.5t15.5 37.5v674zM540 41q-23 0 -69 29.5t-93 74t-84.5 105t-42.5 113.5v3q-1 9 -1 16q0 32 7 50q16 52 61 85.5t100 33.5q73 0 122 -53
q50 53 123 53q55 0 100 -33.5t61 -85.5q7 -18 7 -50q0 -46 -24.5 -97.5t-61 -93.5t-77 -76.5t-75 -54t-53.5 -19.5zM782 414l-2 3q-11 39 -44 63.5t-73 24.5q-32 0 -59 -15t-44 -42l-20 -30l-19 30q-17 27 -44.5 42t-58.5 15q-40 0 -73 -24.5t-45 -63.5l-1 -3q-4 -9 -4 -32
q0 -5 1 -11v-3q5 -46 39 -99t75 -91.5t78.5 -64.5t51.5 -26q11 0 39 17t63 47.5t67.5 67t54.5 80.5t22 83q0 23 -4 32z" />
    <glyph glyph-name="wode" unicode="&#xe63a;" horiz-adv-x="1026" 
d="M491 834q161 2 271.5 -75t163.5 -203q32 -74 33 -166t-30 -169q-39 -96 -111 -164t-172 -100q-18 -5 -75 -16q-6 -1 -17.5 -2t-16.5 -1h-39q-8 0 -23 1t-23 2q-69 13 -111 30q-196 81 -260 290q-13 42 -17.5 90.5t4.5 99.5q12 64 21 86q76 195 267 270q26 10 87 22
q8 1 24 2.5t24 2.5zM492 764q-9 -1 -25.5 -3t-24.5 -3q-49 -11 -86 -27q-77 -34 -130.5 -96.5t-78.5 -148.5q-25 -83 -10 -157q9 -47 17 -68q18 -51 47 -93q5 -5 14 -16.5t13 -16.5q1 0 2 0.5t1 1.5q2 2 5.5 6t5.5 6q3 3 9 8.5t9 8.5q2 1 8 2.5t9 2.5q7 3 20.5 8t20.5 7
q98 43 135 91v42q-52 28 -52 98q-16 -3 -20.5 6.5t-4.5 30.5q0 14 0.5 21t5.5 13.5t15 4.5v1q-8 27 3 63q13 47 56.5 75t95.5 7q84 -34 73 -146q10 2 15 -4.5t5.5 -14t0.5 -20.5q0 -21 -4.5 -30.5t-20.5 -6.5q1 -66 -51 -98v-42l12.5 -12.5t13.5 -12.5q29 -24 58 -41
q25 -15 75 -35q6 -1 16.5 -4.5l16.5 -5.5q7 -3 17 -15.5t14 -15.5q13 10 39 52q27 44 42.5 97.5t14 115.5t-22.5 117q-76 196 -289 241q-23 5 -85 6z" />
    <glyph glyph-name="weixuanshou" unicode="&#xe643;" 
d="M909 682q-10 12 -29 32q-159 163 -342 16q-10 -7 -29 -26q-5 5 -14.5 13t-14.5 13q-187 144 -342 -16q-20 -20 -26 -32q-66 -96 -67.5 -194t51 -188t154.5 -178q77 -67 137 -103q32 -19 45 -29q14 -9 19 -9l13 -7q2 -1 7.5 -3t8.5 -3q18 -5 44.5 -2t45.5 15q6 0 16 9
q23 12 44 29q61 36 138 103q103 90 156.5 180.5t51.5 188t-67 191.5zM736 163q-73 -62 -131 -99q-39 -23 -45 -26q-13 -6 -16 -9q-6 -3 -26 -10h-9h-16h-3v0v0q-4 0 -4 3q-1 0 -4.5 2t-4.5 2q-3 3 -16 9.5t-45 25.5q-78 50 -131 99q-288 257 -131 490q3 4 11 12t11 13
q124 133 275 13q10 -6 23 -19v0l28 -32v0l2 -1l1 -2h1v-1l1 -1l2 -2v0v0v0l1 1l1 2l1 1l1 1h1l1 1l1 1v1l1 1l1 1l1 1l1 1l1 1l1 1l1 1l2 1q25 26 41 39q152 120 276 -13q3 -5 11 -13t11 -13q58 -76 59.5 -159t-46.5 -162.5t-141 -161.5z" />
    <glyph glyph-name="jifen" unicode="&#xe698;" 
d="M200 520h467v35h-467v-35zM200 209h112q-1 18 3 35h-115v-35v0zM805 659v-180q18 -3 35 -8v190q0 57 -39.5 97t-96.5 40l-37 -1v-35h34q38 0 71 -32.5t33 -70.5zM359 399h-159v-34h144q5 19 15 34zM563 866h-259v-35h259v35zM183 -33q-47 0 -84 37t-37 84v571
q0 38 32.5 70.5t71.5 32.5h34v35l-37 1q-57 0 -96.5 -40t-39.5 -97v-569q0 -66 46.5 -112.5t111.5 -46.5h179q-13 16 -21 34h-160v0zM425 814v-34h-104v-35h225v35h-87v34h-34zM373 296q0 -55 88 -88t223 -33q89 0 159.5 14.5t111 42t40.5 64.5q0 56 -90 97t-221 41
t-221 -41t-90 -97zM961 296q0 -36 -78.5 -61.5t-198.5 -25.5t-198 25.5t-78 61.5q0 23 34 46.5t99 40t143 16.5t143 -16.5t99.5 -40t34.5 -46.5zM968 81v1h-1v0q-4 4 -10 4t-10.5 -4.5t-4.5 -10.5t5 -11v0q14 -14 14 -41q0 -36 -78.5 -61t-198.5 -25t-198 25t-78 61
q0 29 14 41l0.5 0.5l0.5 0.5v0v0q4 4 4 10t-4.5 10.5t-11 4.5t-10.5 -4v0q-15 -8 -21.5 -26.5t-6.5 -36.5q0 -54 88 -87.5t223 -33.5t224 33.5t87 87.5q-1 49 -27 62zM961 227l1 -1.5t3 -3.5t2 -3v0q-4 4 -10 4q-7 0 -11.5 -4t-4.5 -11q0 -6 5 -11v0q15 -14 15 -40
q0 -35 -78.5 -60.5t-198.5 -25.5t-198 25.5t-78 60.5q0 28 14 41h0.5h0.5v0v0q4 5 4 10q0 7 -4.5 11t-11 4t-10.5 -4v0q-28 -14 -28 -62q0 -54 88 -87.5t223 -33.5t223 33.5t88 87.5q0 18 -8.5 38.5t-25.5 31.5zM967 219v0v0z" />
    <glyph glyph-name="dianzan1" unicode="&#xe648;" 
d="M852 536q-10 2 -23.5 4t-37.5 3t-41 1.5t-57 1.5t-61 1q6 30 6 85q0 68 -40.5 121.5t-86.5 53.5q-32 0 -55 -22.5t-23 -54.5q0 -23 -4.5 -46t-14.5 -50t-32 -51.5t-53 -40.5q-16 -9 -27 -14l2 -1q-24 21 -52 21h-78q-32 0 -55 -23t-23 -55v-414q0 -32 23 -55t55 -23h78
q22 0 40.5 12.5t28.5 32.5h1q1 -1 3 -1.5t3 -0.5h1q31 -8 105 -25q79 -18 155 -18h142q65 0 93 50q6 13 11 28q6 22 0 46q28 19 43 66q12 40 0 71q27 26 35 72q5 32 -11 61q21 23 23 56v6v13q0 27 -19 53t-54 36z" />
    <glyph glyph-name="laorenpeihu" unicode="&#xe6aa;" 
d="M718 186q-17 0 -33 -7q0 1 -0.5 1.5l-1.5 1.5l-204 203q-22 22 -52 14v0q-1 0 -1.5 -0.5l-0.5 -0.5q-10 -3 -19 -10q-92 -55 -152 -174t-60 -234q0 -3 -1 -26t1 -26h394v199l20 -20q5 -5 11 -8q1 -15 12 -24.5t25 -9.5t24.5 8.5t12.5 21.5h1v8q0 9 7 15.5t16 6.5
t15.5 -6.5t6.5 -15.5v-175h61v175q1 34 -23.5 58.5t-58.5 24.5zM830 558q-2 9 -22.5 18t-30.5 7l-7 -2l-36 40q-20 23 -37 33q-18 9 -103 -11.5t-100 -42.5q-8 -14 -14 -38l-13 -62l-7 -2q-9 -3 -22.5 -21t-11.5 -27t10.5 -13.5t17.5 -2.5l48 13q9 -46 45.5 -77t84.5 -31
q55 0 94 39t39 93q0 23 -8 44l57 16q9 2 14 10t2 17zM730 626l4 -5v1z" />
    <glyph glyph-name="gou" unicode="&#xe63d;" 
d="M902 493q0 69 -47 121.5t-118 64.5q-18 111 -72 165q-51 51 -139 51q-21 0 -41.5 -4.5t-46 -18.5t-46.5 -36t-40.5 -62t-30.5 -93q-82 0 -140.5 -55t-58.5 -130l-41 -510q0 -47 35 -80t84 -33h343q15 0 25.5 11t10.5 26t-10.5 25.5t-25.5 10.5h-343q-19 0 -32.5 11.5
t-13.5 25.5l41 510q0 45 33.5 78t82.5 37q-4 -35 -4 -73q0 -15 11 -25.5t26 -10.5t26 10.5t11 25.5q0 38 3 73h287q2 -29 2 -65q0 -15 11 -25.5t26 -10.5t25.5 10.5t10.5 25.5q0 31 -1 58q37 -12 60.5 -42t23.5 -69l41 -504q0 -16 -13 -28t-32 -12h-41q-15 0 -26 -10.5
t-11 -25.5t11 -26t26 -11h41q49 0 83.5 33.5t34.5 82.5zM396 681q33 140 131 141q57 -1 87 -30q34 -34 48 -111h-266v0zM662 -90zM625 -90q0 15 11 25.5t26 10.5t25.5 -10.5t10.5 -25.5t-10.5 -26t-25.5 -11t-26 11t-11 26z" />
    <glyph glyph-name="jiangli" unicode="&#xe642;" 
d="M543 425v177q-16 2 -25 3v1h-1h-1v0h1h1v-1h-1v0v0h-1q-21 -3 -35 -4v-176h-366v141q0 17 12 28.5t29 11.5h166q-78 17 -79 64q-2 36 32.5 70t81.5 23.5t84 -41t74 -76.5q24 31 44 51.5t54 42t68 25.5q44 6 78 -27.5t28 -66.5q-7 -48 -83 -65h164q17 0 29 -11.5t12 -28.5
v-141h-366v0zM364 727q-43 17 -68 -25q-18 -30 -4 -44q39 -40 184 -25q-59 73 -112 94zM738 658q8 11 5.5 27t-14 28t-28 17.5t-35.5 -3.5q-54 -25 -111 -94q39 -3 76 -1q89 3 107 26zM483 2h-297q-15 0 -26 10.5t-11 26.5v357h334v-394zM875 39q0 -16 -11 -26.5t-26 -10.5
h-297v394h334v-357z" />
    <glyph glyph-name="huoyuan" unicode="&#xe62b;" 
d="M0 666v167q0 26 19 44.5t45 18.5h896q26 0 45 -18.5t19 -44.5v-167h-1024v0zM512 122q-62 0 -105.5 43t-43.5 103.5t43.5 103.5t105.5 43t105.5 -43t43.5 -103.5t-43.5 -103.5t-105.5 -43zM981 -3q0 -26 -18.5 -44.5t-45.5 -18.5h-19l-214 211q41 55 41 124
q0 86 -62.5 147.5t-150.5 61.5t-150.5 -61.5t-62.5 -148t62.5 -147.5t150.5 -61q70 0 126 40l170 -166h-701q-27 0 -45.5 18.5t-18.5 44.5v606h938v-606z" />
    <glyph glyph-name="form" unicode="&#xe60b;" 
d="M800 -32h-576q-40 0 -68 28t-28 68v640q0 40 28 68t68 28h576q40 0 68 -28t28 -68v-640q0 -40 -28 -68t-68 -28zM224 736q-13 0 -22.5 -9.5t-9.5 -22.5v-640q0 -13 9.5 -22.5t22.5 -9.5h576q13 0 22.5 9.5t9.5 22.5v640q0 13 -9.5 22.5t-22.5 9.5h-576zM641 351h-353
q-13 0 -22.5 9.5t-9.5 22.5t9.5 22.5t22.5 9.5h353q13 0 22.5 -9.5t9.5 -22.5t-9.5 -22.5t-22.5 -9.5zM735 160h-447q-14 0 -23 9.5t-9 23t9 22.5t23 9h447q13 0 22.5 -9t9.5 -22.5t-9.5 -23t-22.5 -9.5zM304 591zM256 591q0 20 14 34t34 14t34 -14t14 -34t-14 -34t-34 -14
t-34 14t-14 34zM511 591zM463 591q0 20 14 34t34 14t34 -14t14 -34t-14 -34t-34 -14t-34 14t-14 34zM719 591zM671 591q0 20 14 34t34 14t34 -14t14 -34t-14 -34t-34 -14t-34 14t-14 34z" />
    <glyph glyph-name="yezhuweiyuanhui" unicode="&#xe63f;" horiz-adv-x="1025" 
d="M663 711q-36 79 -106 118.5t-185 38.5q-40 -5 -77 -18q-60 -24 -103 -71t-63 -110q-18 -65 -8 -121t43 -100.5t75.5 -74t89.5 -43.5q22 -7 55 -9t61 2q84 15 149 70.5t88 137t-19 180.5v0zM426 387q-41 -7 -82.5 5t-72.5 37.5t-54.5 61t-28.5 76.5t6 83q32 103 138 143
q13 3 41 10q84 0 135.5 -25t83.5 -78q44 -76 28 -142t-70 -113t-124 -58v0zM99 180q23 9 69 26.5t69 26.5q-2 5 -9.5 24.5t-11.5 30.5q-4 4 -13 2t-14 -4t-13.5 -6t-11.5 -5q-98 -37 -126 -48q-9 -16 -11 -57t-3 -49q-25 -143 -24 -220h557q18 0 19 13l2 49h-506
q8 65 27 217v0zM99 180zM622 202q-13 -6 -56 -16.5t-75 -23t-44 -29.5q-19 -25 29 -81q6 -8 22 -15.5t29 -11.5l13 -4q128 -17 229 -40q3 -1 11 0t10 2q39 28 117 83.5t117 82.5q-7 5 -13.5 11t-7.5 7.5t-6.5 2t-9.5 -0.5t-17 -5q-41 15 -78 14.5t-97 -14.5v-15
q13 -2 30.5 -7t29.5 -7q4 -1 11 -3t16 -7.5t8 -11.5q-2 -10 -25 -26.5t-29 -16.5q-8 -2 -16 -3.5t-18 -1t-17 0.5t-19.5 2.5t-18 3.5t-19.5 5t-17.5 4.5t-19 5.5t-16.5 5q8 -1 29 -3.5t30 -3t26 -2t26 -1t22 1.5t23 4t19 7q2 1 5 3.5t5 5.5t0 6.5t-9 6.5q-38 16 -113 45
t-93 38q-4 2 -12 2.5t-11 -0.5v0v0zM622 202z" />
    <glyph glyph-name="xiazai" unicode="&#xe622;" 
d="M341 70l36 36l110 -110v448h50v-448l110 110l36 -36l-171 -170zM665 180v51h114q70 0 120 50t50 120q0 67 -46 116.5t-113 53.5l-50 3l-6 50q-10 84 -73.5 140.5t-148.5 56.5t-148.5 -56.5t-73.5 -140.5l-6 -50l-50 -3q-67 -4 -113 -53.5t-46 -116.5q0 -70 50 -120
t120 -50h114v-51h-114q-91 0 -156 65t-65 156q0 88 60 151q60 64 146 69l9 1l1 8q12 103 90 172t182 69t182 -69t90 -172l1 -8l9 -1q86 -5 146 -69q60 -63 60 -151q0 -91 -65 -156t-156 -65h-114z" />
    <glyph glyph-name="gouwu" unicode="&#xe663;" 
d="M763 646v188h-502v-188h-137v-610q0 -42 29.5 -71.5t71.5 -29.5h574q42 0 71.5 29.5t29.5 71.5v610h-137v0zM354 740h316v-94h-316v94zM512 115q-8 4 -21.5 11t-48.5 30.5t-61.5 50.5t-48.5 69.5t-22 88.5q0 44 27 72t70 28q56 0 94 -79q3 -7 10.5 -6.5t10.5 6.5
q37 79 95 79q43 0 70 -28t27 -72q0 -46 -21 -88.5t-50.5 -70.5t-59 -49.5t-50.5 -31.5l-21 -10v0v0z" />
    <glyph glyph-name="daili" unicode="&#xe620;" 
d="M690 359q-88 0 -150.5 -62.5t-62.5 -150.5t62.5 -150t150.5 -62t150.5 62t62.5 150t-62.5 150.5t-150.5 62.5zM690 -31q-73 0 -125 52t-52 125.5t52 125.5t125 52t125 -52t52 -125.5t-52 -125.5t-125 -52zM713 178h45q10 0 10 10t-10 10h-7q-8 0 -11.5 8t2.5 14l17 16
q5 6 0 11q-3 3 -6 3t-6 -3l-45 -45q-3 -3 -8.5 -3t-9.5 3l-45 45q-2 3 -5.5 3t-5.5 -3q-6 -5 0 -11l16 -16q6 -6 3 -14t-11 -8h-14q-9 0 -9 -10t9 -10h46q5 0 8.5 -3.5t3.5 -8.5v-23q0 -5 -3.5 -9t-8.5 -4h-46q-9 0 -9 -9.5t9 -9.5h46q5 0 8.5 -4t3.5 -9v-45q0 -10 10 -10
t10 10v45q0 5 3.5 9t9.5 4h45q10 0 10 9.5t-10 9.5h-45q-6 0 -9.5 4t-3.5 9v23q0 5 3.5 8.5t9.5 3.5zM478 302h1v0h4v1q9 1 15 7q9 9 9 21q0 9 -7 19t-22 10q-88 0 -150 63t-62 152.5t62.5 152.5t150.5 63t150 -63t62 -152q0 -73 -43 -130q0 -1 -1 -1q-5 -6 -5 -13
q0 -8 6 -13.5t14 -5.5t13 6q1 0 1 1h1q0 1 1 2v0q50 69 50 153q0 107 -73 182t-176 75t-176.5 -75t-73.5 -182q0 -74 39 -137q37 -60 99 -93q8 -3 7 -11.5t-8 -11.5q-110 -37 -179 -133q-69 -98 -70 -219q1 -1 1 -2q0 -6 4 -10q5 -5 12 -5t12 5q3 4 4 10v0.5v0.5v0.5v1.5
q1 89 45 165.5t119.5 121t163.5 44.5z" />
    <glyph glyph-name="back-top" unicode="&#xe60c;" 
d="M39 896h946v-158h-946v158zM985 187h-237v-315h-472v315h-237l473 473z" />
    <glyph glyph-name="send" unicode="&#xe60d;" 
d="M287 384h-62q-13 0 -22.5 9.5t-9.5 22.5t9.5 22.5t22.5 9.5h62q13 0 22.5 -9.5t9.5 -22.5t-9.5 -22.5t-22.5 -9.5zM883 768h-742q-32 0 -54.5 -22.5t-22.5 -54.5v-155v-8v-458q0 -29 21 -49.5t50 -20.5h754q29 0 50 20.5t21 49.5v458v163q0 32 -22.5 54.5t-54.5 22.5z
M896 691v-131h-223v144h210q5 0 9 -4t4 -9zM447 704h162v-360l-71 28q-12 5 -24 0l-67 -28v360zM128 691q0 5 4 9t9 4h242v-144h-255v131zM889 64h-754q-7 0 -7 6v426h255v-200q0 -17 14 -26q8 -6 18 -6q6 0 12 3l99 40l103 -40q15 -7 29.5 2.5t14.5 26.5v200h223v-426
q0 -6 -7 -6z" />
    <glyph glyph-name="wuyeguanli" unicode="&#xe65a;" 
d="M479 472h-65q-12 0 -12 -11v-65q0 -12 11 -12h67q11 0 11 11v16.5v31v17.5q0 12 -12 12zM433 32l-251 1v392l30 30q273 270 284 281q18 17 34 1q1 -1 19.5 -18.5t43 -42l55.5 -55.5t60.5 -60t54.5 -53.5t40 -39.5l15 -15q111 -104 138 -130q13 -12 28.5 -7.5t19 18.5
t-8.5 28l-441 426l-23 23q-11 11 -19 11t-18 -10l-24 -24q-414 -412 -440 -437q-12 -12 -8.5 -26.5t16 -17.5t27.5 9l70 70v-388q0 -11 11 -11h340q3 6 0 8q-21 8 -31.5 15.5t-21.5 21.5zM881 183h-263q-1 0 -4.5 0.5t-5 0.5t-3.5 -0.5t-3 -1.5t-1.5 -2.5t-0.5 -4.5
q0 -6 4 -8t14 -2h263h4q15 0 15 9q0 5 -3 7t-5.5 2h-10.5zM840 295h-181q-75 0 -122 -37.5t-47 -107.5q0 -64 48 -109.5t116 -54.5q11 -10 -15 -56q-2 -4 -0.5 -4.5t4.5 0.5q14 9 117 60h80q72 0 117 45.5t45 118.5q0 70 -43.5 107.5t-118.5 37.5zM823 21h-138
q-35 0 -71 14.5t-63 45t-26 69.5q1 59 47 86t113 26l138 1q67 1 105 -30.5t40 -82.5q1 -56 -37 -92.5t-108 -36.5zM881 117h-263h-4.5h-5h-3.5t-3 -1t-1.5 -2.5t-0.5 -4.5q0 -7 4 -8.5t14 -1.5h263h4q15 0 15 9q0 5 -3 7t-5.5 2h-10.5zM369 472h-66q-11 0 -11 -10v-66
q0 -12 10 -12h68q11 1 11 11l-0.5 16.5t-0.5 31t1 17.5q0 12 -12 12zM479 363h-65q-12 0 -12 -10v-66q0 -12 11 -12h67q11 0 11 11v65q0 12 -12 12zM369 364h-66q-11 0 -11 -11v-66q0 -11 10 -11q61 -1 68 0q11 0 11 10q0 1 -0.5 17.5t-0.5 30.5t1 18q0 12 -12 12z" />
    <glyph glyph-name="xuanshou" unicode="&#xe684;" 
d="M893 672q-14 17 -27 31q-52 54 -109 72t-111.5 3t-109.5 -59q-14 -11 -27 -23q-13 12 -27 23q-55 44 -109 59t-111.5 -3t-109.5 -72q-13 -14 -25 -30q-63 -91 -65 -186t48.5 -182t149.5 -173q60 -53 133 -100q22 -15 43 -27q11 -6 17 -9q7 -5 15 -7q5 -3 12 -5
q19 -5 44 -1.5t42 13.5q4 2 16 9q21 12 44 27q72 47 133 100q98 86 148.5 173t49 181.5t-63.5 185.5z" />
    <glyph glyph-name="jiushuiyinliao" unicode="&#xe619;" 
d="M455 392h-250q-3 -5 -3 -18.5t3.5 -31t13 -36.5t24.5 -35t39.5 -26.5t55.5 -10.5q32 0 57 14t37 35t20 44.5t6.5 40.5t-3.5 24zM356 -45v241q63 12 105.5 69t42.5 133q0 63 -28 113l-5 8h-283l-5 -8q-29 -50 -29 -113q0 -77 43 -134.5t108 -68.5v-240q-37 -1 -61.5 -6
t-24.5 -12q0 -8 33 -13.5t79 -5.5t78.5 5.5t32.5 13.5q-2 13 -86 18zM185 398q0 50 21 89h246q22 -42 22 -89q0 -72 -42.5 -122.5t-102 -50.5t-102 50.5t-42.5 122.5zM626 850h119v-103h-119v103zM745 620v96h-119v-96q-38 -18 -61.5 -53.5t-23.5 -78.5v-94v-299v-177h289
v176v300v94q0 43 -23 78.5t-62 53.5zM822 385v-283h-273v283h273z" />
    <glyph glyph-name="gongyi" unicode="&#xe836;" horiz-adv-x="1205" 
d="M1175 485q23 81 14.5 156.5t-49.5 131.5q-90 123 -251 123q-145 0 -263 -130q-117 130 -262 130q-87 0 -162 -43.5t-112 -120.5q10 -25 93 -69q47 119 181 119q76 0 148 -55t114 -148q43 93 116 148t147 55q50 0 92 -20t67 -56q71 -99 6 -221q58 5 121 0v0zM1205 433
q-18 2 -38 4t-55.5 3t-68 -4.5t-65.5 -15t-58.5 -31t-37.5 -50.5q0 1 0.5 7.5t0.5 8t0.5 7t1 7.5t1.5 7t2 7.5t2.5 6t3.5 6.5t4 7q-52 -28 -91.5 -77t-59 -95.5t-47.5 -105.5t-56 -95q-15 98 -64 201t-103 172q-15 18 -45.5 55.5t-53 67t-40.5 54.5q1 -12 -2 -39t-2 -40
q-17 23 -59 48.5t-86 47t-84.5 45.5t-61 55t-9.5 65q-42 -68 -32 -195t56 -197q31 -47 81.5 -86.5t97.5 -62.5t108 -55t99 -61q116 -87 182 -189q19 28 37.5 52t42 46.5t36 35.5t41 35t34.5 26.5t39 27.5l33 23q94 66 147 120q16 16 36.5 45t35 49t40 37t57.5 20v0z" />
    <glyph glyph-name="fuwu" unicode="&#xe626;" 
d="M944 384h-67q0 -99 -48.5 -183.5t-133 -133t-183.5 -48.5q-140 0 -244 93q-7 6 -8 15.5t5 17.5l21 28q7 9 18 10t19 -6q80 -74 189 -74q116 0 198.5 82.5t82.5 198.5h-66q-11 0 -16 9t1 17l97 130q10 13 26.5 13t25.5 -13l97 -130q7 -8 1.5 -17t-15.5 -9zM756 656
q-104 93 -244 93q-99 0 -183.5 -48.5t-133 -133t-48.5 -183.5h-67q-10 0 -15.5 -9t1.5 -17l97 -130q9 -13 25.5 -13t26.5 13l97 130q6 8 1 17t-16 9h-66q0 116 82.5 198.5t198.5 82.5q109 0 189 -74q9 -7 19.5 -6t17.5 10l21 28q6 8 5 17.5t-8 15.5zM588 486q-3 1 -6 0
q1 21 0 33q-3 30 -22 44q-22 18 -48 18t-48 -18q-19 -14 -22 -44q-1 -12 0 -33q-3 1 -6 0q-11 -2 -7 -23q5 -25 15 -24h0.5h0.5q2 -14 13.5 -32.5t23.5 -26.5q8 -11 30 -10q22 -1 30 10q12 8 23.5 26.5t13.5 32.5h0.5h0.5q10 -1 15 24q4 21 -7 23zM638 328q-12 6 -29.5 13
t-28.5 11l-12 4q-8 -49 -37 -98q-1 25 -5 53q6 10 10 19q2 4 -1 8t-7 4h-32q-4 0 -7 -4t-1 -8q4 -9 10 -19q-4 -28 -5 -53q-29 48 -37 98q-42 -14 -70 -28q-24 -12 -33.5 -24t-9.5 -38v-15q0 -15 10.5 -25.5t25.5 -10.5h266q15 0 25.5 10.5t10.5 25.5v15q0 26 -9.5 38
t-33.5 24z" />
    <glyph glyph-name="zixun" unicode="&#xe636;" 
d="M506 833q-91 -1 -173.5 -37t-142 -96.5t-94 -143.5t-33.5 -174q1 -84 32.5 -160.5t84.5 -136.5q18 -20 20 -39t-17 -32q-37 -21 -93 -30q-5 -1 6 -7q56 -26 193 -38q131 -13 260 2q114 12 207.5 74t147.5 161t53 214q-1 91 -37 173.5t-96.5 141.5t-143.5 94t-174 34z
M507 103q-24 0 -41.5 17t-17.5 41t17.5 41t41.5 17t41.5 -17t17.5 -41t-17 -41t-42 -17zM666 430q-18 -28 -74 -74q-29 -25 -36 -40t-6 -52h-85v14.5v7.5q0 40 13 67t54 59q41 33 48 43q12 16 12 36q0 26 -21 46q-21 19 -59 19q-35 0 -59 -20q-11 -9 -20.5 -27.5
t-11.5 -33.5q-2 -9 -23 -13t-41.5 1.5t-20.5 21.5q2 58 50 100q47 41 123 41q79 0 126.5 -41.5t47.5 -96.5q0 -29 -17 -58z" />
    <glyph glyph-name="gongshi" unicode="&#xe62a;" 
d="M796 836h-220q-6 24 -25.5 39.5t-44 15.5t-44 -15.5t-25.5 -39.5h-220q-37 0 -63.5 -26.5t-26.5 -63.5v-759q0 -37 26.5 -63.5t63.5 -26.5h579q37 0 63.5 26.5t26.5 63.5v759q0 37 -26.5 63.5t-63.5 26.5zM506.5 855q14.5 0 25.5 -11t11 -26t-11 -25.5t-25.5 -10.5
t-25.5 10.5t-11 25.5t11 26t25.5 11zM850 -13q0 -22 -16 -38t-38 -16h-579q-22 0 -38 16t-16 38v759q0 23 16 38.5t38 15.5h220q2 -9 7 -18h-82q-8 0 -13 -5t-5 -12.5t5 -13t13 -5.5h289q8 0 13 5.5t5 13t-5 12.5t-13 5h-82q5 9 7 18h220q22 0 38 -15.5t16 -38.5v-759z
M651 692q8 0 13 5.5t5 12.5t-5 12.5t-13 5.5h-289q-8 0 -13 -5.5t-5 -13t5 -12.5t13 -5h289zM772 565h-392q-7 0 -12.5 -5t-5.5 -12.5t5.5 -13t12.5 -5.5h392q7 0 12.5 5.5t5.5 13t-5.5 12.5t-12.5 5zM275 583h-7q-13 0 -23 -9.5t-10 -22.5v-7q0 -14 10 -23.5t23 -9.5h7
q14 0 23.5 9.5t9.5 23.5v7q0 13 -9.5 22.5t-23.5 9.5zM275 439h-7q-13 0 -23 -9.5t-10 -23.5v-7q0 -13 10 -22.5t23 -9.5h7q14 0 23.5 9.5t9.5 22.5v7q0 14 -9.5 23.5t-23.5 9.5zM275 294h-7q-13 0 -23 -9.5t-10 -22.5v-7q0 -14 10 -23.5t23 -9.5h7q14 0 23.5 9.5t9.5 23.5
v7q0 13 -9.5 22.5t-23.5 9.5zM275 150h-7q-13 0 -23 -9.5t-10 -23.5v-7q0 -13 10 -23t23 -10h7q14 0 23.5 10t9.5 23v7q0 14 -9.5 23.5t-23.5 9.5zM772 421h-392q-7 0 -12.5 -5.5t-5.5 -13t5.5 -12.5t12.5 -5h392q7 0 12.5 5t5.5 12.5t-5.5 13t-12.5 5.5zM772 276h-392
q-7 0 -12.5 -5t-5.5 -12.5t5.5 -13t12.5 -5.5h392q7 0 12.5 5.5t5.5 13t-5.5 12.5t-12.5 5zM772 132h-392q-7 0 -12.5 -5.5t-5.5 -13t5.5 -13t12.5 -5.5l392 1q7 0 12.5 5t5.5 12.5t-5.5 13t-12.5 5.5z" />
    <glyph glyph-name="remai" unicode="&#xe61e;" 
d="M167 179q42 77 48.5 135.5t-18 101t-81.5 81.5q73 5 137.5 -29.5t113.5 -94.5q-20 -38 -32 -66q-38 -86 -33.5 -169.5t49.5 -153.5q1 -2 3.5 -5t3.5 -5q-35 -17 -73 -14.5t-67 22t-49.5 50t-21 68.5t19.5 79v0v0zM598 -128q-85 0 -158.5 56.5t-100.5 151t21 216.5
q23 51 59.5 113.5t65.5 106.5t53.5 97t30.5 95.5t-11 91t-64 94.5q5 -1 12 -3t28.5 -10.5t41.5 -18.5t44 -28.5t41.5 -39.5t30.5 -52.5t14 -66.5q2 -45 -7.5 -94t-21.5 -88.5t-21.5 -83t-7 -95.5t21.5 -109q-18 62 -11.5 122.5t31 110.5t71.5 87.5t109 54.5
q-34 -37 -50.5 -69.5t-16 -60t9 -52.5t24.5 -51.5t30.5 -52.5t25.5 -60.5t12 -69.5q1 -87 -41 -154.5t-112 -102.5t-154 -35v0v0z" />
    <glyph glyph-name="nvzhuang" unicode="&#xe61a;" 
d="M883 58q-10 43 -27.5 88.5t-38 84.5t-43.5 75.5t-43.5 64.5t-37 49.5t-26.5 32.5l-10 12q11 82 22 105q63 -26 93 -37q9 -4 16 8.5t10.5 32t6.5 40t4 34.5l1 15q-10 7 -26 18.5t-59.5 36.5t-80.5 37q0 -2 -1 -7t-8.5 -17t-20 -22t-39.5 -18.5t-63 -9.5q-36 1 -63 9.5
t-39.5 19t-20 21t-8.5 17.5l-1 7q-37 -13 -78.5 -36t-64.5 -40l-23 -16q1 -9 2.5 -23.5t5 -45t12 -48.5t18.5 -13q14 5 37 14t39.5 16l16.5 7q5 -10 10.5 -36.5t8.5 -47.5l3 -21q-7 -8 -19.5 -22.5t-45.5 -60t-61 -91t-57.5 -110t-42.5 -123.5q1 -1 0 -8t5.5 -19t19.5 -18
t102.5 -10.5t160.5 -6.5t83 -2q316 6 346 19q25 12 25 45z" />
    <glyph glyph-name="qr" unicode="&#xe60e;" 
d="M512 261zM869 835h-222q-37 0 -63 -26t-26 -63v-269q0 -19 13 -32t32 -13h266q37 0 63 26.5t26 63.5v224q0 37 -26 63t-63 26zM869 522v0h-222v224v0h222v0v-224zM381 835h-223q-36 0 -62 -26t-26 -63v-224q0 -37 26 -63.5t62 -26.5h267q18 0 31 13t13 32v269
q0 37 -26 63t-62 26zM381 522h-223v0v224v0h223v0v-224zM425 343h-267q-36 0 -62 -26.5t-26 -63.5v-224q0 -37 26 -63.5t62 -26.5h223q36 0 62 26.5t26 63.5v269q0 18 -13 31.5t-31 13.5zM381 29v0h-223v0v224v0h223v-224zM914 163h-89v135v0v0q0 3 -1 6q-2 17 -14.5 28
t-29.5 11v0v0h-177v0v0q-3 0 -6 -1q-16 -2 -27.5 -14.5t-11.5 -29.5v0v0v-314v0v0q0 -7 3 -14q4 -13 14.5 -21t23.5 -9h0.5h0.5h0.5h0.5q1 -1 2 -1h133q18 0 31 13.5t13 32t-13 31.5t-31 13h-89v224h89v-134v0v0v-7q3 -16 14.5 -26.5t26.5 -11.5h0.5h0.5h0.5h0.5h1h134
q18 0 31 13t13 31.5t-13 31.5t-31 13zM914 29h-45q-18 0 -31 -13t-13 -31.5t13 -32t31 -13.5h45q18 0 31 13.5t13 32t-13 31.5t-31 13zM292 701h-45q-18 0 -31 -13t-13 -32v-45q0 -18 13 -31t31 -13h45q18 0 31 13t13 31v45q0 19 -13 32t-31 13zM913.5 343
q-18.5 0 -31.5 -13.5t-13 -31.5v-45q0 -19 13 -32t31.5 -13t31.5 13t13 32v45q0 18 -13 31.5t-31.5 13.5z" />
    <glyph glyph-name="jigou" unicode="&#xe6ae;" 
d="M831 493q-10 0 -18 6.5t-11 16.5q-24 101 -105 164.5t-185 63.5t-185 -64t-106 -164q-3 -12 -13 -18.5t-22 -3.5t-18.5 13.5t-3.5 21.5q30 121 127 197.5t221 76.5t221 -76.5t127 -197.5q2 -12 -4 -22t-18 -13q-5 -1 -7 -1zM912 484h-800q-13 0 -21.5 9t-8.5 21t9 20.5
t21 8.5h801q12 0 20.5 -8.5t8.5 -20.5q0 -13 -8.5 -21.5t-21.5 -8.5zM182.5 -35q-12.5 0 -21 8.5t-8.5 20.5v501q0 12 8.5 20.5t20.5 8.5t20.5 -8.5t8.5 -20.5v-500q0 -12 -8 -21t-20.5 -9zM842 -35q-12 0 -20.5 8.5t-8.5 20.5v501q0 12 8.5 20.5t20.5 8.5t20.5 -8.5
t8.5 -20.5v-500q0 -12 -8.5 -21t-20.5 -9zM402 -35q-12 0 -20.5 8.5t-8.5 20.5v501q0 12 8.5 20.5t20.5 8.5t20.5 -8.5t8.5 -20.5v-500q0 -12 -8.5 -21t-20.5 -9zM622 -35q-12 0 -20.5 8.5t-8.5 20.5v501q0 12 8.5 20.5t20.5 8.5t20.5 -8.5t8.5 -20.5v-500q0 -12 -8.5 -21
t-20.5 -9zM292 164q-12 0 -20.5 9t-8.5 21v117q0 12 8.5 20.5t20.5 8.5t21 -8.5t9 -20.5v-117q0 -13 -9 -21.5t-21 -8.5zM512 164q-12 0 -20.5 9t-8.5 21v117q0 12 8.5 20.5t20.5 8.5t20.5 -8.5t8.5 -20.5v-117q0 -13 -8.5 -21.5t-20.5 -8.5zM731.5 164q-12.5 0 -21 9
t-8.5 21v117q0 12 9 20.5t21 8.5t20.5 -8.5t8.5 -20.5v-117q0 -13 -8.5 -21.5t-21 -8.5zM912 -35h-800q-13 0 -21.5 8.5t-8.5 20.5t9 21t21 9h801q12 0 20.5 -9t8.5 -21t-8.5 -20.5t-21.5 -8.5z" />
    <glyph glyph-name="iphone" unicode="&#xe62e;" 
d="M350 819q-31 0 -53 -22t-22 -53v-720q0 -31 22 -53t53 -22h324q31 0 53.5 22t22.5 53v720q0 31 -22.5 53t-53.5 22h-324v0zM704 101h-383v566h383v-566v0zM473 28q0 16 11.5 27.5t27.5 11.5t27.5 -11.5t11.5 -27.5t-11.5 -27.5t-27.5 -11.5t-27.5 11.5t-11.5 27.5v0z
M550 743q9 0 9 -9t-9 -9h-75q-9 0 -9 9t9 9h75v0zM550 743z" />
    <glyph glyph-name="refund" unicode="&#xe60f;" 
d="M951.5 310q-7.5 10 -20 12t-23.5 -5l-54 -39q14 52 14 106q0 109 -53.5 201t-146 146t-201 54t-201 -54t-146 -146t-53.5 -201t53.5 -201t146 -146t201.5 -54q106 0 198 53q5 1 10 4q25 15 49 34q10 8 11 21t-7 22.5t-20.5 11t-22.5 -6.5q-17 -14 -39 -27q-5 -2 -6 -3
q-80 -47 -173 -47q-92 0 -170.5 45.5t-124 123.5t-45.5 170t45.5 170t124 123.5t170.5 45.5t170 -45.5t123.5 -123.5t45.5 -170q0 -64 -23 -123l-44 104q-5 12 -16.5 17t-23.5 0t-17 -17t0 -23l70 -166q0 -1 2 -5q1 0 1 -0.5v-1.5v0q4 -5 10 -8l2 -1q6 -3 10 -3h1.5h0.5h0.5
h0.5h1h1q3 0 7 1h0.5h0.5q4 2 7 4h0.5h0.5l145 105q11 8 13 20.5t-5.5 22.5zM587 517q9 9 9.5 21.5t-8.5 22t-22 9.5t-22 -9l-76 -74l-77 74q-9 9 -22 9t-21.5 -9.5t-8.5 -22t9 -21.5l87 -83v-18h-62q-13 0 -22 -9t-9 -22t9 -22t22 -9h62v-31h-62q-13 0 -22 -9t-9 -21.5
t9 -21.5t22 -9h62v-65q0 -12 9 -21t21.5 -9t21.5 9t9 21v65h61q13 0 22 9t9 21.5t-9 21.5t-22 9h-61v31h61q13 0 22 9t9 22t-9 22t-22 9h-61v13z" />
    <glyph glyph-name="jumingongyibang" unicode="&#xe627;" 
d="M890 829l-108 -217q-26 24 -60.5 43.5t-66 29t-59 15.5t-44.5 8l-16 1l72 142q5 21 26 21h234q11 0 19 -8t8 -19q0 -8 -5 -16v0zM893 275q0 -103 -51 -190t-138 -137.5t-190 -50.5t-190.5 50.5t-138 137.5t-50.5 190t50.5 190t138 138t190.5 51t190 -51t138 -138t51 -190
v0zM691 362l-103 15l-46 94q-12 23 -28.5 23t-27.5 -23l-46 -94l-104 -15q-26 -4 -31 -19.5t14 -33.5l75 -73l-18 -103q-5 -26 8.5 -35.5t36.5 2.5l93 49l92 -49q24 -12 37 -2.5t8 35.5l-17 103l74 73q20 19 15 34t-32 19v0zM134 829q-5 8 -5 16q0 11 8 19t19 8h234
q21 0 26 -21l72 -142q-6 0 -17 -1.5t-42.5 -7.5t-60.5 -15.5t-64.5 -29t-61.5 -43.5z" />
    <glyph glyph-name="xiangbao" unicode="&#xe61b;" 
d="M957 33l-61 509q-5 29 -28 49t-53 20h-81v0q0 94 -64.5 158t-159 64t-159 -64t-64.5 -158v0h-81q-30 0 -53.5 -20t-27.5 -49l-61 -509q-6 -41 19 -70q22 -26 56 -26h742q35 0 57 26q25 29 19 70v0zM343 611q0 70 48.5 118t119 48t119 -48t48.5 -118v0h-336h1v0zM206 555
h609q9 0 16.5 -6t8.5 -14l13 -106l-343 -115l-342 115l13 105q1 9 8.5 15t16.5 6v0zM896 0q-6 -7 -15 -7h-742q-8 0 -14 7q-8 9 -6 26l42 347l341 -115q4 -1 8.5 -1t8.5 1l341 115l42 -347q2 -17 -6 -26v0zM454 414h112q12 0 20 8t8 19.5t-8 20t-20 8.5h-112
q-11 0 -19.5 -8.5t-8.5 -20t8.5 -19.5t19.5 -8v0z" />
    <glyph glyph-name="huazhuangpin" unicode="&#xe61c;" horiz-adv-x="1075" 
d="M526 494q3 -1 6 -1h6q3 0 7 1q10 3 25 8t52 21t68 34.5t62.5 48.5t46.5 62q27 63 -6 130q-44 87 -113 97q-71 9 -146 -58q-74 67 -143 58q-70 -9 -113 -97q-34 -67 -6 -130q14 -32 45.5 -62t62.5 -48.5t68 -34.5t52.5 -21t25.5 -8zM320 777q33 65 77 71h9
q24 0 52.5 -16.5t39 -26t16.5 -16.5q8 -9 20 -8q11 -1 18 7l7.5 7.5t18.5 16t27.5 19.5t32.5 13.5t35 3.5q45 -7 77 -71q24 -47 5 -89q-13 -31 -45 -58.5t-71.5 -46t-62.5 -28t-41 -14.5q-24 7 -52.5 19t-63.5 30.5t-63.5 44t-40.5 53.5q-18 42 5 89zM1072 482l-64 265
q-8 32 -33.5 52.5t-59.5 20.5h-23q-10 0 -17 -7t-7 -17t7 -17t17 -7h23q17 0 30 -10t17 -26l63 -265q6 -23 -8.5 -41t-37.5 -18h-884q-23 0 -37 18t-9 41l64 265q3 16 16 26t30 10h18q10 0 17 7t7 17t-7 17t-17 7h-18q-33 0 -59 -20.5t-34 -52.5l-63 -265
q-11 -45 17.5 -81.5t74.5 -36.5h884q46 0 74.5 36.5t18.5 81.5zM699 -23q10 0 17 7t7 17v181q0 43 -31 74.5t-75 31.5h-136q-44 0 -75 -31.5t-31 -74.5v-181q0 -10 7 -17t16.5 -7t16.5 7t7 17v181q0 24 17.5 41t41.5 17h136q24 0 41 -17t17 -41v-181q0 -10 7 -17t17 -7z
M984 305q-10 0 -17 -7t-7 -16v-261q0 -42 -29.5 -71.5t-71.5 -29.5h-636q-42 0 -72 29.5t-30 71.5v261q0 9 -7 16t-16.5 7t-16.5 -7t-7 -16v-261q0 -61 43.5 -105t105.5 -44h636q62 0 105.5 44t43.5 105v261q0 9 -7 16t-17 7z" />
    <glyph glyph-name="dingdan-copy" unicode="&#xe645;" horiz-adv-x="1449" 
d="M844 943h-238q-22 0 -37.5 -17t-15.5 -41t15.5 -41t37.5 -17h240q21 0 36 17t15 41t-15.5 41t-37.5 17v0zM1104 905h-119q2 -10 2 -20q0 -37 -23.5 -67t-54.5 -30h-365q-33 0 -56.5 30t-23.5 67q0 10 2 20h-121q-68 0 -94 -34.5t-26 -99.5v-783q0 -66 30 -99.5t98 -33.5
h743q72 0 105.5 31t33.5 102v783q0 61 -33.5 97.5t-97.5 36.5v0zM981 131h-516q-14 0 -26 14t-12 29q0 14 10.5 24.5t24.5 10.5h515q14 0 25 -10t12 -25q0 -15 -9.5 -29t-23.5 -14v0zM984 339h-517q-14 0 -22.5 12t-8.5 27t10.5 27t24.5 12h515q14 0 24.5 -11.5t12.5 -27.5
q0 -14 -12.5 -26.5t-26.5 -12.5v0zM984 552h-517q-14 0 -22.5 12t-8.5 27t10.5 26.5t24.5 11.5h515q14 0 24.5 -11t12.5 -27q0 -14 -12.5 -26.5t-26.5 -12.5v0zM984 552z" />
    <glyph glyph-name="gotop" unicode="&#xe6c9;" 
d="M959 361l-54 -54l-355 355v-763h-76v750l-343 -343l-54 54l432 433h-444v76h894v-76h-432zM511 793l8 -8l8 8h-16z" />
    <glyph glyph-name="pay" unicode="&#xe610;" 
d="M799 -4h-639q-40 0 -68 28t-28 68v578q0 40 28 68t68 28h642q40 0 68 -28t28 -68v-94q0 -13 -9 -22.5t-22.5 -9.5t-23 9.5t-9.5 22.5v94q0 13 -9 22.5t-23 9.5h-642q-13 0 -22.5 -9.5t-9.5 -22.5v-578q0 -14 9.5 -23t22.5 -9h639q14 0 23 9t9 23v98q0 14 9.5 23t23 9
t22.5 -9t9 -23v-98q0 -40 -28 -68t-68 -28zM630 382q0 -13 9 -22t22 -9t22.5 9t9.5 22v0q0 13 -9.5 22t-22.5 9t-22 -9t-9 -22v0zM896 256h-320q-26 0 -45 19t-19 45v128q0 26 19 45t45 19h320q26 0 45 -19t19 -45v-128q0 -26 -19 -45t-45 -19zM576 448v-128h320v128h-320z
" />
    <glyph glyph-name="renyuanjieshao" unicode="&#xe650;" 
d="M499 396q39 31 61.5 76t22.5 96q0 91 -64.5 155t-155.5 64t-155 -64t-64 -155q0 -52 22.5 -97t62.5 -76q-102 -41 -165.5 -133t-63.5 -206v-38q0 -15 10.5 -25.5t26.5 -10.5h658q15 0 25.5 10.5t10.5 25.5v38q0 115 -64 207.5t-168 132.5zM217 568q0 61 43 103.5
t103.5 42.5t103 -42.5t42.5 -103.5q0 -60 -41.5 -102.5t-101.5 -43.5v0h-2h-2q-60 0 -102.5 43t-42.5 103zM73 55v1q0 120 84.5 205.5t203.5 87.5h1.5h0.5h2.5h2.5q120 -1 205 -86.5t85 -206.5zM693 640h330v-73h-330v73zM693 457h330v-73h-330v73zM805 274h218v-73h-218v73
z" />
    <glyph glyph-name="toupiao" unicode="&#xe644;" 
d="M924 691h-115v106q0 14 -10 24.5t-25 10.5h-523q-15 0 -25 -10.5t-10 -24.5v-106h-116q-14 0 -24.5 -10.5t-10.5 -24.5v-687q0 -15 10.5 -25.5t24.5 -10.5h824q15 0 25 10.5t10 25.5v687q0 14 -10 24.5t-25 10.5zM768 791v-179h-512v179h512zM216 650v-38h-20
q-8 0 -14 -6t-6 -14.5t6 -14.5t14 -6h632q9 0 15 6t6 14.5t-6 14.5t-15 6h-19v38h109v-135l-812 1v134h110zM106 -26v501l812 -1v-500h-812zM513.5 423q-77.5 0 -132.5 -54.5t-55 -132t55 -132.5t132.5 -55t132.5 55t55 132.5t-55 132t-132.5 54.5zM539 80h-51l-102 269h57
l49 -139q12 -31 21 -65q7 26 20 62l52 142h56z" />
    <glyph glyph-name="chaoshi" unicode="&#xe625;" 
d="M789 79q10 44 19.5 93t20.5 112.5t17 93.5q2 17 11 29q13 15 35 18q5 0 5 12v46q0 7 -1 8t-8 1h-18h-19h-113h-226h-226h-113h-35q-8 0 -9.5 -2.5t-1.5 -9.5v-2v-43q0 -8 1 -9t9 -1h22q9 0 11 -2t4 -15l23 -114q3 -16 9 -48.5t9 -48.5t9.5 -48t9.5 -48q7 -37 7 -38h531
q10 0 12 2.5t5 13.5v0v0zM135 382h-22q-11 0 -20.5 7.5t-9.5 15.5v107q0 10 10.5 17t22.5 7h57h113h226h226h113h57q13 0 23 -7.5t10 -17.5v-104q0 -26 -40 -25q-4 0 -6.5 -1t-3.5 -3t-1.5 -3.5t-1 -6t-1.5 -7.5l-48 -250q-1 -3 -3.5 -19.5t-5 -25.5t-7 -21.5t-11 -18.5
t-16.5 -6h-564q-6 0 -11.5 2.5t-9.5 7.5t-6.5 9.5t-5 12.5t-3.5 13.5t-2.5 14.5t-2.5 13l-9 48t-10 48q-3 15 -9 48t-9 48l-19 97v0zM505 748h22q43 0 90.5 -19.5t74.5 -43.5q32 -29 55 -59q10 -13 23.5 -39t14.5 -38h-48q-6 25 -31 56.5t-49 49.5q-64 48 -139 48h-8
q-77 0 -141 -47q-24 -18 -49.5 -49.5t-32.5 -57.5h-48q1 12 15 38t23 39q28 37 57 60q77 62 171 62v0zM363 406v0q12 0 21 -8t9 -19v-250q0 -11 -9 -18.5t-21 -7.5v0q-13 0 -21.5 7.5t-8.5 18.5v250q0 11 8.5 19t21.5 8v0zM512 406v0q12 0 21 -8t9 -19v-250q0 -11 -9 -18.5
t-21 -7.5v0q-12 0 -21 7.5t-9 18.5v250q0 11 9 19t21 8v0zM661 406v0q13 0 21.5 -8t8.5 -19v-250q0 -11 -8.5 -18.5t-21.5 -7.5v0q-12 0 -21 7.5t-9 18.5v250q0 11 9 19t21 8v0z" />
    <glyph glyph-name="quit" unicode="&#xe612;" 
d="M12 844v-756q0 -12 6.5 -21.5t11.5 -9.5l297 -166q5 -6 18 -6h18q18 8 18 31v139h285q15 0 26.5 12t11.5 26v231h-69v-200h-249v549q0 23 -18 30l-182 105h452v-251h69v287q0 15 -12.5 27t-26.5 12h-618q-15 0 -26.5 -11.5t-11.5 -27.5zM586 388l188 -5v-95q0 -5 12 -18
h13q4 0 7.5 2.5t5.5 2.5l195 144q0 2 2.5 8.5t2.5 9.5q0 12 -5 18l-195 143q-5 0 -11 1t-9 1t-6 -2q-12 -8 -12 -18v-95h-188q-17 0 -32.5 -15t-15.5 -33t15 -33.5t33 -15.5v0z" />
    <glyph glyph-name="fabu" unicode="&#xe637;" 
d="M957 763l-63 63q-7 6 -16 6t-16 -7l-61 -61q-6 -6 -6 -15.5t6 -15.5l63 -63q6 -6 15.5 -6t15.5 6l61 62q7 6 7 15t-6 16zM379 325l-20 -81q-2 -9 2.5 -13.5t13.5 -2.5l81 20q9 2 11 8t-5 12l-63 63q-6 7 -12 5t-8 -11zM896 3q0 -9 -6.5 -15.5t-16.5 -6.5h-739
q-9 0 -15.5 6.5t-6.5 15.5v739q0 10 6.5 16.5t15.5 6.5h515l45 45h-560q-28 0 -47.5 -20t-19.5 -48v-739q0 -28 19.5 -47.5t47.5 -19.5h739q28 0 48 19.5t20 47.5v583l-45 -45v-538v0zM415 347l63 -63q6 -7 15 -7t16 7l339 339q7 7 7 16t-7 16l-62 63q-7 6 -16 6t-16 -7
l-339 -339q-7 -7 -7 -16t7 -15z" />
    <glyph glyph-name="meitipuguangdu" unicode="&#xe62d;" 
d="M999 365q-4 2 -9 2q-7 0 -12 -4l-177 -132v164q0 19 -11 31t-28 12h-57q44 31 70 78.5t26 103.5q0 91 -64.5 155.5t-155.5 64.5q-82 0 -144 -54.5t-73 -134.5q-21 51 -67 82.5t-102 31.5q-76 0 -129.5 -53.5t-53.5 -128.5q0 -43 19.5 -81t52.5 -64h-33q-17 0 -28 -12
t-11 -31v-426q0 -19 11 -31t28 -12h711q17 0 28 12t11 31v183l176 -150q5 -5 13 -5t14 6t6 15v0v329v0q0 12 -11 18zM581.5 799q74.5 0 126.5 -52.5t52 -126.5t-52 -126.5t-126.5 -52.5t-127 52.5t-52.5 126.5t52.5 126.5t127 52.5zM53 582.5q0 58.5 41.5 100.5t100 42
t100.5 -42t42 -100.5t-42 -100t-100.5 -41.5t-100 41.5t-41.5 100zM374 548q24 -68 84 -110h-152q55 43 68 110zM760 -31v-2h-707v2v0v426v3h707v-3v-426zM969 62l-153 130l153 114v-244z" />
    <glyph glyph-name="renwu-on" unicode="&#xe724;" 
d="M67 738v0v0q8 0 14 6l132 115q8 6 8 16q0 8 -6 14q-6 7 -16 7v0q-8 0 -14 -5l-133 -115q-7 -7 -7 -16t6 -15.5t15 -6.5h1v0zM939 750q6 -4 13 -4h1q10 0 16 8q5 5 5 13v0q0 10 -8 17l-139 107q-6 5 -13 5v0q-11 0 -17 -8q-5 -6 -5 -13v0q0 -11 8 -17zM510.5 843
q-99.5 0 -190 -38.5t-156 -103.5t-104.5 -154.5t-39 -188t39 -188.5t104.5 -155t156 -103.5t190 -38.5t190.5 38.5t156.5 103.5t104 155t38.5 188.5t-38.5 188t-104 154.5t-156.5 103.5t-190.5 38.5zM826 321h-318q-9 0 -15 6t-6 15v315q0 9 6 15t15 6t15 -6t6 -15v-294h297
h1q9 0 15 -6t6 -15t-6 -15t-15 -6h-1v0z" />
    <glyph glyph-name="xiangdao" unicode="&#xe652;" 
d="M432 7h24q5 0 8.5 3.5t3.5 8.5v163q-1 19 10 32q29 37 391 467q1 2 3 1t2 -3q-6 -31 -33.5 -173t-51 -265.5t-24.5 -126.5q-1 -9 -9 -6q-29 9 -226 72q-8 2 -10 -5l-6 -20q-2 -9 5 -11q160 -52 229 -73q18 -5 33.5 5t19.5 31q2 11 59.5 312t58.5 306q5 29 -6 36
q-19 14 -34 3h-1l-3 -2q-728 -399 -754 -412q-19 -11 -19 -29t16 -23q234 -78 235 -78q7 -3 10 5l6 19q2 9 -5 11l-192 62q-6 2 -6 7.5t5 7.5l653 359q2 1 3 -0.5t0 -2.5q-21 -25 -112 -133.5t-172.5 -206t-87.5 -104.5q-24 -28 -23 -59v-178zM432 7z" />
    <glyph glyph-name="shangjiagongyibang" unicode="&#xe6c7;" 
d="M618 308v0q7 23 29 28l30 10l-7 32v1q-1 4 -1 9t1 10v1q4 13 14 21l19 20v1l-23 25q-11 11 -11 27q0 5 1 10l7 33l-32 10q-22 7 -28 29l1 -2v0l-10 33l-32 -8h-1q-5 -1 -9 -1q-6 0 -11 1q-13 4 -20 13l-22 20v0l-24 -22l-1 -1q-12 -11 -28 -11q-5 0 -10 1l-32 8l-10 -32
v-1q-4 -13 -15 -21q-5 -6 -20 -8l-25 -8l8 -33q1 -4 1 -9q0 -6 -2 -11v0q-4 -13 -14 -22l-18 -20v0l21 -24l2 -1q9 -10 11 -23l-2 5q2 -4 2 -10q0 -5 -1 -9l-8 -33l32 -10q14 -5 23 -16q4 -2 6 -17l9 -27l33 8q4 1 8 1q6 0 12 -2q12 -3 20 -13l-3 4l25 -24l23 22l2 2
q8 8 20 10l-3 -1q5 2 11 2q5 0 9 -1l33 -8zM511 358q-35 0 -59.5 24.5t-24.5 59.5t24.5 60t59.5 25t60 -25t25 -60t-25 -59.5t-60 -24.5zM512 896q-139 0 -257 -68.5t-186.5 -186.5t-68.5 -257t68.5 -257t186.5 -186.5t257 -68.5t257 68.5t186.5 186.5t68.5 257t-68.5 257
t-186.5 186.5t-257 68.5zM397 91q-7 -12 -11 -15q-3 -1 -7 -1q-8 0 -12 7l-39 69l-79 -1q-5 0 -7 2q-7 4 -7 12q0 4 1 7l56 91l6 -1.5t13.5 -4.5t10.5 -5l12 -33l10 -19q2 -2 7.5 -5t6.5 -5l21 -8l28 -4l41 6zM564 220l-11 -11l-11 -9q-13 -12 -30.5 -12t-30.5 12l-11 9
l-15 14l-9 1l-29 -7q-5 -1 -11 -1q-12 0 -22 6q-18 11 -22 31l-10 30l-12 4l-13 4l-14 4q-17 8 -24 25q-4 4 -4 18q0 5 1 10v1l8 35l-1 1l-24 26v0q-12 14 -12 31.5t12 30.5l1 1l24 27l-8 36q-1 4 -1 10q0 12 6 23q10 17 29 21l32 10v1l11 35q7 20 25 28q6 4 19 4q5 0 10 -1
l36 -8h1l27 25q13 12 30.5 12t30.5 -12l1 -1l27 -24v0l36 8q5 1 10 1q12 0 23 -6q17 -10 21 -30l10 -32l36 -11q19 -5 27 -24q5 -6 5 -19q0 -5 -1 -10l-9 -36l26 -28q12 -13 12 -30.5t-12 -31.5l-1 -1l-25 -26h1l8 -36q4 -18 -5 -33v0q-10 -16 -28 -21l-7 -2l-15 -5l-12 -4
v0l-11 -35v-2q-7 -19 -25 -27l3 2q-10 -5 -21 -5q-5 0 -10 1h-1l-28 6q-5 2 -13 -3zM782 149q-2 -2 -7 -2h-79l-39 -69q-4 -7 -12 -7q-4 0 -7 2t-10 14l-52 92l41 -5l28 3l21 8q2 2 7 5t7 6l10 19l12 32q3 3 11 5.5t13.5 4.5l5.5 2l56 -92q2 -3 2 -6q0 -8 -7 -12h-1z" />
  </font>
</defs>
</svg>
